0
SECTION
2
HEADER
9
$INSUNITS
70
4
9
$ACADVER
1
AC1014
9
$HANDSEED
5
FFFF
0
ENDSEC
0
SECTION
2
TABLES
0
TABLE
2
VPORT
5
8
100
AcDbSymbolTable
0
ENDTAB
0
TABLE
2
LTYPE
5
5
100
AcDbSymbolTable
0
LTYPE
5
14
100
AcDbSymbolTableRecord
100
AcDbLinetypeTableRecord
2
BYBLOCK
70
0
0
LTYPE
5
15
100
AcDbSymbolTableRecord
100
AcDbLinetypeTableRecord
2
BYLAYER
70
0
0
ENDTAB
0
TABLE
2
LAYER
5
2
100
AcDbSymbolTable
70
2
0
LAYER
5
50
100
AcDbSymbolTableRecord
100
AcDbLayerTableRecord
2
0
70
0
6
CONTINUOUS
0
ENDTAB
0
TABLE
2
STYLE
5
3
100
AcDbSymbolTable
70
1
0
STYLE
5
11
100
AcDbSymbolTableRecord
100
AcDbTextStyleTableRecord
2
STANDARD
70
0
0
ENDTAB
0
TABLE
2
VIEW
5
6
100
AcDbSymbolTable
70
0
0
ENDTAB
0
TABLE
2
UCS
5
7
100
AcDbSymbolTable
70
0
0
ENDTAB
0
TABLE
2
APPID
5
9
100
AcDbSymbolTable
70
2
0
APPID
5
12
100
AcDbSymbolTableRecord
100
AcDbRegAppTableRecord
2
ACAD
70
0
0
ENDTAB
0
TABLE
2
DIMSTYLE
5
A
100
AcDbSymbolTable
70
1
0
ENDTAB
0
TABLE
2
BLOCK_RECORD
5
1
100
AcDbSymbolTable
70
1
0
BLOCK_RECORD
5
1F
100
AcDbSymbolTableRecord
100
AcDbBlockTableRecord
2
*MODEL_SPACE
0
BLOCK_RECORD
5
1B
100
AcDbSymbolTableRecord
100
AcDbBlockTableRecord
2
*PAPER_SPACE
0
ENDTAB
0
ENDSEC
0
SECTION
2
BLOCKS
0
BLOCK
5
20
100
AcDbEntity
100
AcDbBlockBegin
2
*MODEL_SPACE
0
ENDBLK
5
21
100
AcDbEntity
100
AcDbBlockEnd
0
BLOCK
5
1C
100
AcDbEntity
100
AcDbBlockBegin
2
*PAPER_SPACE
0
ENDBLK
5
1D
100
AcDbEntity
100
AcDbBlockEnd
0
ENDSEC
0
SECTION
2
ENTITIES
0
LWPOLYLINE
5
100
100
AcDbEntity
8
0
100
AcDbPolyline
90
6
70
1
43
0.0
10
490.00000000000006
20
25.000000000000014
42
-0.41421356237309698
10
475
20
10.000000000000002
10
442.38612787525835
20
10.000000000000007
42
-0.83395585963006713
10
441.50270439541123
20
14.838709677419359
42
0.21535334368535272
10
485.16129032258061
20
58.497295604588643
42
-0.83395585963006535
10
490
20
57.613872124741562
0
LWPOLYLINE
5
101
100
AcDbEntity
8
0
100
AcDbPolyline
90
6
70
1
43
0.0
10
25.000000000000014
20
9.9999999999999964
42
-0.41421356237309515
10
10
20
25
10
10.000000000000009
20
57.613872124741654
42
-0.83395585963007046
10
14.838709677419351
20
58.4972956045887
42
0.21535334368535272
10
58.4972956045887
20
14.838709677419361
42
-0.83395585963007091
10
57.613872124741654
20
10.000000000000009
0
LWPOLYLINE
5
102
100
AcDbEntity
8
0
100
AcDbPolyline
90
6
70
1
43
0.0
10
475
20
490
42
-0.41421356237309781
10
490
20
475
10
490
20
442.38612787525847
42
-0.83395585963006791
10
485.16129032258061
20
441.5027043954114
42
0.21535334368535278
10
441.50270439541117
20
485.16129032258061
42
-0.83395585963006791
10
442.38612787525824
20
490
0
LWPOLYLINE
5
103
100
AcDbEntity
8
0
100
AcDbPolyline
90
6
70
1
43
0.0
10
10.000000000000044
20
475
42
-0.41421356237309698
10
25
20
490
10
57.613872124741562
20
490
42
-0.83395585963007091
10
58.497295604588615
20
485.16129032258061
42
0.21535334368535264
10
14.838709677419352
20
441.50270439541123
42
-0.83395585963006669
10
10.000000000000009
20
442.3861278752583
0
LWPOLYLINE
5
104
100
AcDbEntity
8
0
100
AcDbPolyline
90
16
70
1
43
0.0
10
450.43301270189215
20
221.74999999999997
42
-0.26794919243111404
10
450.86602540378436
20
222.00000000000003
10
479.13397459621558
20
222.00000000000006
42
-0.26794919243096815
10
479.56698729810785
20
221.75000000000006
42
1.3032253728413186
10
480.25
20
222.43301270189221
42
-0.26794919243128468
10
480
20
222.86602540378448
10
479.99999999999994
20
225.13397459621558
42
-0.2679491924312517
10
480.24999999999989
20
225.56698729810785
42
1.303225372841432
10
479.56698729810785
20
226.25000000000003
42
-0.26794919243115212
10
479.13397459621558
20
226
10
450.86602540378442
20
225.99999999999997
42
-0.26794919243096815
10
450.43301270189215
20
226.25
42
1.3032253728413186
10
449.75
20
225.56698729810785
42
-0.26794919243128468
10
450
20
225.13397459621558
10
450.00000000000006
20
222.86602540378448
42
-0.2679491924312517
10
449.75000000000011
20
222.43301270189221
42
1.303225372841432
0
LWPOLYLINE
5
105
100
AcDbEntity
8
0
100
AcDbPolyline
90
16
70
1
43
0.0
10
450.43301270189215
20
315.74999999999994
42
-0.26794919243111404
10
450.86602540378436
20
316
10
479.13397459621558
20
316.00000000000006
42
-0.26794919243096815
10
479.56698729810785
20
315.75
42
1.3032253728413186
10
480.25
20
316.43301270189221
42
-0.26794919243128468
10
480
20
316.86602540378442
10
479.99999999999994
20
319.13397459621558
42
-0.2679491924312517
10
480.24999999999989
20
319.56698729810785
42
1.3032253728414018
10
479.56698729810785
20
320.25
42
-0.2679491924311902
10
479.13397459621558
20
320
10
450.86602540378442
20
319.99999999999994
42
-0.26794919243113818
10
450.43301270189215
20
320.25
42
1.3032253728413186
10
449.75
20
319.56698729810785
42
-0.26794919243128468
10
450
20
319.13397459621558
10
450.00000000000006
20
316.86602540378442
42
-0.2679491924312517
10
449.75000000000011
20
316.43301270189221
42
1.303225372841432
0
CIRCLE
5
106
100
AcDbEntity
8
0
100
AcDbCircle
10
275
20
460
30
0
40
1.9999999999999929
210
0
220
-0
230
1
0
CIRCLE
5
107
100
AcDbEntity
8
0
100
AcDbCircle
10
160
20
39.999999999999929
30
0
40
1.9999999999999929
210
0
220
-0
230
1
0
CIRCLE
5
108
100
AcDbEntity
8
0
100
AcDbCircle
10
60
20
318.00000000000006
30
0
40
1.9999999999999929
210
0
220
-0
230
1
0
LWPOLYLINE
5
109
100
AcDbEntity
8
0
100
AcDbPolyline
90
8
70
1
43
0.0
10
430
20
87.499999999999787
10
430
20
412.49999999999994
42
0.41421356237309503
10
392.5
20
450
10
107.5
20
450.00000000000006
42
0.41421356237309492
10
70
20
412.50000000000006
10
69.999999999999972
20
87.500000000000142
42
0.41421356237309476
10
107.49999999999993
20
50.000000000000156
10
392.49999999999994
20
49.999999999999822
42
0.41421356237309537
0
CIRCLE
5
110
100
AcDbEntity
8
0
100
AcDbCircle
10
10
20
318.00000000000006
30
0
40
2.0000000000000107
210
0
220
-0
230
1
0
LWPOLYLINE
5
111
100
AcDbEntity
8
0
100
AcDbPolyline
90
16
70
1
43
0.0
10
49.566987298107819
20
320.25
42
-0.26794919243124948
10
49.133974596215552
20
320
10
20.866025403784462
20
320
42
-0.26794919243096699
10
20.433012701892213
20
320.25
42
1.3032253728412244
10
19.749999999999989
20
319.56698729810785
42
-0.26794919243108956
10
20
20
319.13397459621558
10
19.999999999999996
20
316.86602540378442
42
-0.26794919243108095
10
19.75
20
316.43301270189221
42
1.3032253728412322
10
20.433012701892217
20
315.75
42
-0.26794919243106607
10
20.86602540378443
20
316
10
49.133974596215552
20
316
42
-0.26794919243108384
10
49.566987298107762
20
315.75
42
1.3032253728411796
10
50.249999999999993
20
316.43301270189221
42
-0.26794919243118892
10
50
20
316.86602540378442
10
49.999999999999986
20
319.13397459621558
42
-0.2679491924311026
10
50.25
20
319.56698729810785
42
1.3032253728412055
0
LWPOLYLINE
5
112
100
AcDbEntity
8
0
100
AcDbPolyline
90
16
70
1
43
0.0
10
20.433012701892217
20
221.75000000000006
42
-0.26794919243106846
10
20.866025403784434
20
222.00000000000003
10
49.133974596215552
20
222.00000000000003
42
-0.26794919243108384
10
49.566987298107762
20
221.75
42
1.3032253728411796
10
50.249999999999993
20
222.43301270189224
42
-0.26794919243118892
10
50
20
222.86602540378448
10
50.000000000000007
20
225.13397459621558
42
-0.26794919243119308
10
50.25
20
225.56698729810779
42
1.3032253728412431
10
49.566987298107762
20
226.25
42
-0.2679491924310673
10
49.133974596215552
20
226
10
20.86602540378443
20
225.99999999999997
42
-0.26794919243108384
10
20.433012701892217
20
226.25
42
1.3032253728411907
10
19.749999999999989
20
225.56698729810785
42
-0.26794919243108956
10
20
20
225.13397459621558
10
19.999999999999996
20
222.86602540378448
42
-0.26794919243108095
10
19.75
20
222.43301270189224
42
1.3032253728412322
0
CIRCLE
5
113
100
AcDbEntity
8
0
100
AcDbCircle
10
225
20
480
30
0
40
1.9999999999999929
210
0
220
-0
230
1
0
CIRCLE
5
114
100
AcDbEntity
8
0
100
AcDbCircle
10
225
20
460
30
0
40
1.9999999999999929
210
0
220
-0
230
1
0
CIRCLE
5
115
100
AcDbEntity
8
0
100
AcDbCircle
10
275
20
480
30
0
40
1.9999999999999929
210
0
220
-0
230
1
0
CIRCLE
5
116
100
AcDbEntity
8
0
100
AcDbCircle
10
340
20
460
30
0
40
2.0000000000000284
210
0
220
-0
230
1
0
CIRCLE
5
117
100
AcDbEntity
8
0
100
AcDbCircle
10
340
20
480
30
0
40
2.0000000000000284
210
0
220
-0
230
1
0
CIRCLE
5
118
100
AcDbEntity
8
0
100
AcDbCircle
10
310
20
480
30
0
40
1.9999999999999929
210
0
220
-0
230
1
0
CIRCLE
5
119
100
AcDbEntity
8
0
100
AcDbCircle
10
10
20
192.00000000000003
30
0
40
2.0000000298023224
210
0
220
-0
230
1
0
CIRCLE
5
120
100
AcDbEntity
8
0
100
AcDbCircle
10
35
20
192.00000000000003
30
0
40
2.0000000298023224
210
0
220
-0
230
1
0
CIRCLE
5
121
100
AcDbEntity
8
0
100
AcDbCircle
10
35
20
167.00000000000003
30
0
40
2.0000000298023224
210
0
220
-0
230
1
0
CIRCLE
5
122
100
AcDbEntity
8
0
100
AcDbCircle
10
160
20
460.00000000000006
30
0
40
1.9999999999999929
210
0
220
-0
230
1
0
CIRCLE
5
123
100
AcDbEntity
8
0
100
AcDbCircle
10
35
20
142.00000000000003
30
0
40
2.0000000298023224
210
0
220
-0
230
1
0
CIRCLE
5
124
100
AcDbEntity
8
0
100
AcDbCircle
10
160
20
20.000000000000028
30
0
40
1.9999999999999929
210
0
220
-0
230
1
0
CIRCLE
5
125
100
AcDbEntity
8
0
100
AcDbCircle
10
190
20
460.00000000000006
30
0
40
1.9999999999999929
210
0
220
-0
230
1
0
CIRCLE
5
126
100
AcDbEntity
8
0
100
AcDbCircle
10
310
20
20.000000000000028
30
0
40
1.9999999999999929
210
0
220
-0
230
1
0
CIRCLE
5
127
100
AcDbEntity
8
0
100
AcDbCircle
10
190
20
20.000000000000028
30
0
40
1.9999999999999929
210
0
220
-0
230
1
0
CIRCLE
5
128
100
AcDbEntity
8
0
100
AcDbCircle
10
249.84999999999999
20
5.5000000000000053
30
0
40
1.9999999999999929
210
0
220
-0
230
1
0
CIRCLE
5
129
100
AcDbEntity
8
0
100
AcDbCircle
10
160
20
480.00000000000006
30
0
40
1.9999999999999929
210
0
220
-0
230
1
0
CIRCLE
5
130
100
AcDbEntity
8
0
100
AcDbCircle
10
340
20
20.000000000000028
30
0
40
2.0000000000000284
210
0
220
-0
230
1
0
CIRCLE
5
131
100
AcDbEntity
8
0
100
AcDbCircle
10
190
20
480.00000000000006
30
0
40
1.9999999999999929
210
0
220
-0
230
1
0
CIRCLE
5
132
100
AcDbEntity
8
0
100
AcDbCircle
10
265.5
20
21.15000000000002
30
0
40
1.9999999999999929
210
0
220
-0
230
1
0
CIRCLE
5
133
100
AcDbEntity
8
0
100
AcDbCircle
10
490
20
224.00000000000003
30
0
40
2.0000000000000284
210
0
220
-0
230
1
0
CIRCLE
5
134
100
AcDbEntity
8
0
100
AcDbCircle
10
10
20
167.00000000000003
30
0
40
2.0000000298023224
210
0
220
-0
230
1
0
CIRCLE
5
135
100
AcDbEntity
8
0
100
AcDbCircle
10
310
20
460
30
0
40
1.9999999999999929
210
0
220
-0
230
1
0
CIRCLE
5
136
100
AcDbEntity
8
0
100
AcDbCircle
10
250
20
462.5
30
0
40
1.9999999999999929
210
0
220
-0
230
1
0
CIRCLE
5
137
100
AcDbEntity
8
0
100
AcDbCircle
10
310
20
40.000000000000028
30
0
40
1.9999999999999929
210
0
220
-0
230
1
0
CIRCLE
5
138
100
AcDbEntity
8
0
100
AcDbCircle
10
190
20
40.000000000000028
30
0
40
1.9999999999999929
210
0
220
-0
230
1
0
CIRCLE
5
139
100
AcDbEntity
8
0
100
AcDbCircle
10
60
20
224.00000000000003
30
0
40
1.9999999999999929
210
0
220
-0
230
1
0
CIRCLE
5
140
100
AcDbEntity
8
0
100
AcDbCircle
10
340
20
40
30
0
40
2.0000000000000284
210
0
220
-0
230
1
0
CIRCLE
5
141
100
AcDbEntity
8
0
100
AcDbCircle
10
440
20
318
30
0
40
1.9999999999999574
210
0
220
-0
230
1
0
CIRCLE
5
142
100
AcDbEntity
8
0
100
AcDbCircle
10
490
20
318
30
0
40
2.0000000000000284
210
0
220
-0
230
1
0
CIRCLE
5
143
100
AcDbEntity
8
0
100
AcDbCircle
10
10
20
224.00000000000003
30
0
40
2.000000000000004
210
0
220
-0
230
1
0
CIRCLE
5
144
100
AcDbEntity
8
0
100
AcDbCircle
10
440
20
224.00000000000003
30
0
40
2.0000000000000284
210
0
220
-0
230
1
0
CIRCLE
5
145
100
AcDbEntity
8
0
100
AcDbCircle
10
60
20
142.00000000000003
30
0
40
2.0000000000000107
210
0
220
-0
230
1
0
CIRCLE
5
146
100
AcDbEntity
8
0
100
AcDbCircle
10
60
20
192.00000000000003
30
0
40
2.0000000000000018
210
0
220
-0
230
1
0
CIRCLE
5
147
100
AcDbEntity
8
0
100
AcDbCircle
10
250
20
21.000000000000021
30
0
40
3.0000000000000071
210
0
220
-0
230
1
0
CIRCLE
5
148
100
AcDbEntity
8
0
100
AcDbCircle
10
10
20
142.00000000000003
30
0
40
2.0000000298023224
210
0
220
-0
230
1
0
CIRCLE
5
149
100
AcDbEntity
8
0
100
AcDbCircle
10
60
20
167.00000000000003
30
0
40
2.0000000000000107
210
0
220
-0
230
1
0
CIRCLE
5
150
100
AcDbEntity
8
0
100
AcDbCircle
10
234.5
20
21.149999999999984
30
0
40
1.9999999999999929
210
0
220
-0
230
1
0
LWPOLYLINE
5
151
100
AcDbEntity
8
0
100
AcDbPolyline
90
8
70
1
43
0.0
10
500.00000000000006
20
25.000000000000007
42
-0.41421356237309614
10
475
20
0
10
25.000000000000004
20
-4.4408920985006262e-15
42
-0.41421356237309503
10
0
20
25
10
4.4408920985006262e-14
20
475
42
-0.4142135623730962
10
25
20
500
10
475
20
500
42
-0.4142135623730967
10
500
20
475
0
ENDSEC
0
SECTION
2
OBJECTS
0
DICTIONARY
5
C
100
AcDbDictionary
3
ACAD_GROUP
350
D
3
ACAD_MLINESTYLE
350
17
0
DICTIONARY
5
D
100
AcDbDictionary
0
DICTIONARY
5
1A
330
C
100
AcDbDictionary
0
DICTIONARY
5
17
100
AcDbDictionary
0
ENDSEC
0
EOF
