0
SECTION
2
HEADER
9
$INSUNITS
70
4
9
$ACADVER
1
AC1014
9
$HANDSEED
5
FFFF
0
ENDSEC
0
SECTION
2
TABLES
0
TABLE
2
VPORT
5
8
100
AcDbSymbolTable
0
ENDTAB
0
TABLE
2
LTYPE
5
5
100
AcDbSymbolTable
0
LTYPE
5
14
100
AcDbSymbolTableRecord
100
AcDbLinetypeTableRecord
2
BYBLOCK
70
0
0
LTYPE
5
15
100
AcDbSymbolTableRecord
100
AcDbLinetypeTableRecord
2
BYLAYER
70
0
0
ENDTAB
0
TABLE
2
LAYER
5
2
100
AcDbSymbolTable
70
2
0
LAYER
5
50
100
AcDbSymbolTableRecord
100
AcDbLayerTableRecord
2
0
70
0
6
CONTINUOUS
0
ENDTAB
0
TABLE
2
STYLE
5
3
100
AcDbSymbolTable
70
1
0
STYLE
5
11
100
AcDbSymbolTableRecord
100
AcDbTextStyleTableRecord
2
STANDARD
70
0
0
ENDTAB
0
TABLE
2
VIEW
5
6
100
AcDbSymbolTable
70
0
0
ENDTAB
0
TABLE
2
UCS
5
7
100
AcDbSymbolTable
70
0
0
ENDTAB
0
TABLE
2
APPID
5
9
100
AcDbSymbolTable
70
2
0
APPID
5
12
100
AcDbSymbolTableRecord
100
AcDbRegAppTableRecord
2
ACAD
70
0
0
ENDTAB
0
TABLE
2
DIMSTYLE
5
A
100
AcDbSymbolTable
70
1
0
ENDTAB
0
TABLE
2
BLOCK_RECORD
5
1
100
AcDbSymbolTable
70
1
0
BLOCK_RECORD
5
1F
100
AcDbSymbolTableRecord
100
AcDbBlockTableRecord
2
*MODEL_SPACE
0
BLOCK_RECORD
5
1B
100
AcDbSymbolTableRecord
100
AcDbBlockTableRecord
2
*PAPER_SPACE
0
ENDTAB
0
ENDSEC
0
SECTION
2
BLOCKS
0
BLOCK
5
20
100
AcDbEntity
100
AcDbBlockBegin
2
*MODEL_SPACE
0
ENDBLK
5
21
100
AcDbEntity
100
AcDbBlockEnd
0
BLOCK
5
1C
100
AcDbEntity
100
AcDbBlockBegin
2
*PAPER_SPACE
0
ENDBLK
5
1D
100
AcDbEntity
100
AcDbBlockEnd
0
ENDSEC
0
SECTION
2
ENTITIES
0
LWPOLYLINE
5
100
100
AcDbEntity
8
0
100
AcDbPolyline
90
6
70
1
43
0.0
10
139.99999999999997
20
52.935214563771318
10
139.99999999999997
20
104.50000000000001
42
0.41421356237309503
10
134.99999999999997
20
109.50000000000001
10
99.225388094482483
20
109.50000000000001
42
0.60533611629061779
10
95.117259650159468
20
101.64986304101993
10
130.89187155567697
20
50.08507760479123
42
0.73489461721983163
0
LWPOLYLINE
5
101
100
AcDbEntity
8
0
100
AcDbPolyline
90
4
70
1
43
0.0
10
83.999999999999986
20
112.50000000000001
10
83.999999999999986
20
116.50000000000003
10
82
20
116.50000000000003
10
82
20
112.50000000000001
0
LWPOLYLINE
5
102
100
AcDbEntity
8
0
100
AcDbPolyline
90
8
70
1
43
0.0
10
178.66318713754475
20
14.999999999999998
10
225
20
14.999999999999996
42
0.41421356237309503
10
230
20
19.999999999999996
10
230
20
45
42
0.41421356237309503
10
225
20
50
10
196.00768474520024
20
50
42
0.24584501632051761
10
191.89955630087724
20
47.850136958980059
10
174.55505869322172
20
22.85013695898008
42
0.60533611629061801
0
LWPOLYLINE
5
103
100
AcDbEntity
8
0
100
AcDbPolyline
90
4
70
1
43
0.0
10
232
20
143.00000000000003
10
232
20
139.00000000000003
10
234
20
139.00000000000003
10
234
20
143.00000000000003
0
LWPOLYLINE
5
104
100
AcDbEntity
8
0
100
AcDbPolyline
90
4
70
1
43
0.0
10
220
20
85
10
220
20
60
10
230
20
60
10
230
20
85
0
CIRCLE
5
105
100
AcDbEntity
8
0
100
AcDbCircle
10
150
20
99.500000000000028
30
0
40
1.5000000000000036
210
0
220
-0
230
1
0
LWPOLYLINE
5
106
100
AcDbEntity
8
0
100
AcDbPolyline
90
4
70
1
43
0.0
10
216
20
80
10
216
20
76
10
218
20
76
10
218
20
80
0
LWPOLYLINE
5
107
100
AcDbEntity
8
0
100
AcDbPolyline
90
4
70
1
43
0.0
10
234
20
69
10
232
20
69
10
232
20
65
10
234
20
65
0
LWPOLYLINE
5
108
100
AcDbEntity
8
0
100
AcDbPolyline
90
4
70
1
43
0.0
10
232
20
76
10
234
20
76
10
234
20
80
10
232
20
80
0
CIRCLE
5
109
100
AcDbEntity
8
0
100
AcDbCircle
10
254.50000000000003
20
214.00000000000003
30
0
40
1.5000000000000213
210
0
220
-0
230
1
0
LWPOLYLINE
5
110
100
AcDbEntity
8
0
100
AcDbPolyline
90
4
70
1
43
0.0
10
218
20
154
10
216
20
154.00000000000003
10
216
20
150
10
218
20
150
0
LWPOLYLINE
5
111
100
AcDbEntity
8
0
100
AcDbPolyline
90
4
70
1
43
0.0
10
232
20
154.00000000000003
10
232
20
150
10
234
20
150
10
234
20
154
0
LWPOLYLINE
5
112
100
AcDbEntity
8
0
100
AcDbPolyline
90
4
70
1
43
0.0
10
216
20
143.00000000000003
10
216
20
139.00000000000003
10
218
20
139.00000000000003
10
218
20
143.00000000000003
0
CIRCLE
5
113
100
AcDbEntity
8
0
100
AcDbCircle
10
150
20
119.50000000000003
30
0
40
1.5000000000000036
210
0
220
-0
230
1
0
CIRCLE
5
114
100
AcDbEntity
8
0
100
AcDbCircle
10
45.499999999999915
20
214.00000000000003
30
0
40
1.5000000000000122
210
0
220
-0
230
1
0
CIRCLE
5
115
100
AcDbEntity
8
0
100
AcDbCircle
10
5
20
214.00000000000003
30
0
40
2
210
0
220
-0
230
1
0
CIRCLE
5
116
100
AcDbEntity
8
0
100
AcDbCircle
10
5.000000074505806
20
5
30
0
40
1.9999999999999996
210
0
220
-0
230
1
0
CIRCLE
5
117
100
AcDbEntity
8
0
100
AcDbCircle
10
45.499999999999986
20
5
30
0
40
1.5000000000000036
210
0
220
-0
230
1
0
LWPOLYLINE
5
118
100
AcDbEntity
8
0
100
AcDbPolyline
90
4
70
1
43
0.0
10
66
20
105.50000000000003
10
66
20
101.50000000000003
10
68
20
101.50000000000003
10
68
20
105.50000000000003
0
LWPOLYLINE
5
119
100
AcDbEntity
8
0
100
AcDbPolyline
90
4
70
1
43
0.0
10
66
20
112.50000000000001
10
68
20
112.50000000000001
10
68
20
116.50000000000003
10
66
20
116.50000000000003
0
CIRCLE
5
120
100
AcDbEntity
8
0
100
AcDbCircle
10
295
20
214.00000000000003
30
0
40
1.9999999999999929
210
0
220
-0
230
1
0
CIRCLE
5
121
100
AcDbEntity
8
0
100
AcDbCircle
10
254.50000000000011
20
5
30
0
40
1.4999999999999858
210
0
220
-0
230
1
0
CIRCLE
5
122
100
AcDbEntity
8
0
100
AcDbCircle
10
295
20
5
30
0
40
1.9999999999999929
210
0
220
-0
230
1
0
CIRCLE
5
123
100
AcDbEntity
8
0
100
AcDbCircle
10
215.99999999999997
20
9
30
0
40
1.4999999999999858
210
0
220
-0
230
1
0
CIRCLE
5
124
100
AcDbEntity
8
0
100
AcDbCircle
10
197
20
9
30
0
40
1.4999999999999858
210
0
220
-0
230
1
0
LWPOLYLINE
5
125
100
AcDbEntity
8
0
100
AcDbPolyline
90
4
70
1
43
0.0
10
218
20
65
10
218
20
69
10
216
20
69
10
216
20
65
0
LWPOLYLINE
5
126
100
AcDbEntity
8
0
100
AcDbPolyline
90
4
70
1
43
0.0
10
230
20
134.00000000000003
10
230
20
159.00000000000003
10
220
20
159.00000000000003
10
220
20
134.00000000000003
0
CIRCLE
5
127
100
AcDbEntity
8
0
100
AcDbCircle
10
150
20
5
30
0
40
1.9999999999999929
210
0
220
-0
230
1
0
LWPOLYLINE
5
128
100
AcDbEntity
8
0
100
AcDbPolyline
90
4
70
1
43
0.0
10
83.999999999999986
20
101.50000000000003
10
83.999999999999986
20
105.50000000000003
10
82
20
105.50000000000003
10
82
20
101.50000000000003
0
ARC
5
129
100
AcDbEntity
8
0
100
AcDbCircle
10
69.895919517982989
20
5
30
0
40
5
210
0
220
0
230
1
100
AcDbArc
50
270
51
325.00000000000006
0
LINE
5
130
100
AcDbEntity
8
0
100
AcDbLine
10
73.991679739427951
20
2.1321178182447724
30
0
11
75.207075031313764
21
3.8678821817552427
31
0
0
ARC
5
131
100
AcDbEntity
8
0
100
AcDbCircle
10
79.30283525275874
20
1.0000000000000115
30
0
40
5
210
0
220
-0
230
1
100
AcDbArc
50
90
51
145.00000000000011
0
LINE
5
132
100
AcDbEntity
8
0
100
AcDbLine
10
79.30283525275874
20
6.0000000000000124
30
0
11
134.51863104427346
21
6.0000000000000053
31
0
0
ARC
5
133
100
AcDbEntity
8
0
100
AcDbCircle
10
134.51863104427346
20
1.0000000000000044
30
0
40
4.9999999999999947
210
0
220
-0
230
1
100
AcDbArc
50
34.752135888889825
51
90
0
LINE
5
134
100
AcDbEntity
8
0
100
AcDbLine
10
138.62675948859646
20
3.8501369589800878
30
0
11
139.80637536469322
21
2.1498630410199127
31
0
0
ARC
5
135
100
AcDbEntity
8
0
100
AcDbCircle
10
143.91450380901625
20
4.9999999999999751
30
0
40
4.9999999999999982
210
0
220
0
230
1
100
AcDbArc
50
214.75213588888946
51
270
0
LINE
5
136
100
AcDbEntity
8
0
100
AcDbLine
10
143.91450380901625
20
-5.5511151231257827e-15
30
0
11
156.0854961909838
21
0
31
0
0
ARC
5
137
100
AcDbEntity
8
0
100
AcDbCircle
10
156.08549619098383
20
4.999999999999984
30
0
40
4.999999999999984
210
0
220
0
230
1
100
AcDbArc
50
269.99999999999972
51
325.2478641111104
0
LINE
5
138
100
AcDbEntity
8
0
100
AcDbLine
10
160.19362463530683
20
2.1498630410199242
30
0
11
161.37324051140359
21
3.8501369589800873
31
0
0
ARC
5
139
100
AcDbEntity
8
0
100
AcDbCircle
10
165.48136895572662
20
0.99999999999999978
30
0
40
5
210
0
220
-0
230
1
100
AcDbArc
50
90
51
145.24786411111032
0
LINE
5
140
100
AcDbEntity
8
0
100
AcDbLine
10
165.48136895572662
20
6
30
0
11
220.6971647472412
21
6
31
0
0
ARC
5
141
100
AcDbEntity
8
0
100
AcDbCircle
10
220.6971647472412
20
0.99999999999999978
30
0
40
5.0000000000000098
210
0
220
-0
230
1
100
AcDbArc
50
34.999999999999432
51
90
0
LINE
5
142
100
AcDbEntity
8
0
100
AcDbLine
10
224.79292496868621
20
3.8678821817552023
30
0
11
226.00832026057196
21
2.1321178182447786
31
0
0
ARC
5
143
100
AcDbEntity
8
0
100
AcDbCircle
10
230.10408048201694
20
4.9999999999999458
30
0
40
4.9999999999999609
210
0
220
0
230
1
100
AcDbArc
50
214.99999999999932
51
270.00000000000034
0
LINE
5
144
100
AcDbEntity
8
0
100
AcDbLine
10
230.10408048201697
20
-8.8817841970012523e-15
30
0
11
295
21
0
31
0
0
ARC
5
145
100
AcDbEntity
8
0
100
AcDbCircle
10
295
20
5
30
0
40
5
210
-0
220
0
230
1
100
AcDbArc
50
-90
51
90
0
LINE
5
146
100
AcDbEntity
8
0
100
AcDbLine
10
295
20
10
30
0
11
258.64213562373101
21
10
31
0
0
ARC
5
147
100
AcDbEntity
8
0
100
AcDbCircle
10
258.64213562373101
20
15
30
0
40
4.9999999999999982
210
0
220
0
230
1
100
AcDbArc
50
225.00000000000026
51
270
0
LINE
5
148
100
AcDbEntity
8
0
100
AcDbLine
10
255.1066017177983
20
11.464466094067259
30
0
11
241.46446609406723
21
25.10660171779832
31
0
0
ARC
5
149
100
AcDbEntity
8
0
100
AcDbCircle
10
245
20
28.642135623731065
30
0
40
5
210
0
220
0
230
1
100
AcDbArc
50
180
51
224.99999999999983
0
LINE
5
150
100
AcDbEntity
8
0
100
AcDbLine
10
240
20
28.642135623731065
30
0
11
240
21
190.35786437626911
31
0
0
ARC
5
151
100
AcDbEntity
8
0
100
AcDbCircle
10
245
20
190.35786437626911
30
0
40
4.9999999999999902
210
0
220
0
230
1
100
AcDbArc
50
135
51
180
0
LINE
5
152
100
AcDbEntity
8
0
100
AcDbLine
10
241.46446609406726
20
193.89339828220184
30
0
11
255.10660171779818
21
207.53553390593271
31
0
0
ARC
5
153
100
AcDbEntity
8
0
100
AcDbCircle
10
258.64213562373089
20
204.00000000000003
30
0
40
5
210
0
220
-0
230
1
100
AcDbArc
50
90
51
135.00000000000026
0
LINE
5
154
100
AcDbEntity
8
0
100
AcDbLine
10
258.64213562373089
20
209.00000000000003
30
0
11
294.99999999999989
21
209.00000000000003
31
0
0
ARC
5
155
100
AcDbEntity
8
0
100
AcDbCircle
10
295
20
214.00000000000003
30
0
40
5
210
0
220
0
230
1
100
AcDbArc
50
-90.000000000001322
51
90.000000000000654
0
LINE
5
156
100
AcDbEntity
8
0
100
AcDbLine
10
294.99999999999994
20
219.00000000000003
30
0
11
235.00000350177288
21
219.00000000000003
31
0
0
ARC
5
157
100
AcDbEntity
8
0
100
AcDbCircle
10
235.00000350177288
20
214.00000000000003
30
0
40
5
210
0
220
-0
230
1
100
AcDbArc
50
90
51
180
0
LINE
5
158
100
AcDbEntity
8
0
100
AcDbLine
10
230
20
214.00000000000003
30
0
11
230
21
174.00000000000003
31
0
0
ARC
5
159
100
AcDbEntity
8
0
100
AcDbCircle
10
225
20
174.00000000000003
30
0
40
5
210
-0
220
0
230
1
100
AcDbArc
50
-90
51
0
0
LINE
5
160
100
AcDbEntity
8
0
100
AcDbLine
10
225
20
169.00000000000003
30
0
11
215
21
169.00000000000003
31
0
0
ARC
5
161
100
AcDbEntity
8
0
100
AcDbCircle
10
215
20
164
30
0
40
5.0000000000000355
210
0
220
-0
230
1
100
AcDbArc
50
90
51
180
0
LINE
5
162
100
AcDbEntity
8
0
100
AcDbLine
10
209.99999999999997
20
164.00000000000003
30
0
11
210
21
141.50000000000011
31
0
0
ARC
5
163
100
AcDbEntity
8
0
100
AcDbCircle
10
205
20
141.50000000000011
30
0
40
5
210
-0
220
0
230
1
100
AcDbArc
50
-90
51
0
0
LINE
5
164
100
AcDbEntity
8
0
100
AcDbLine
10
205
20
136.50000000000011
30
0
11
85.726524017120056
21
136.50000000000003
31
0
0
ARC
5
165
100
AcDbEntity
8
0
100
AcDbCircle
10
85.726524017120056
20
141.50000000000003
30
0
40
4.9999999999999982
210
0
220
0
230
1
100
AcDbArc
50
214.75213588888968
51
270
0
LINE
5
166
100
AcDbEntity
8
0
100
AcDbLine
10
81.618395572797056
20
138.64986304101996
30
0
11
70.891871555676985
21
154.11085283121369
31
0
0
ARC
5
167
100
AcDbEntity
8
0
100
AcDbCircle
10
75
20
156.96098979019374
30
0
40
5
210
0
220
0
230
1
100
AcDbArc
50
180
51
214.75213588888937
0
LINE
5
168
100
AcDbEntity
8
0
100
AcDbLine
10
70
20
156.96098979019371
30
0
11
69.999999999999929
21
214.00000000000003
31
0
0
ARC
5
169
100
AcDbEntity
8
0
100
AcDbCircle
10
64.999999999999929
20
214.00000000000003
30
0
40
5
210
0
220
-0
230
1
100
AcDbArc
50
0
51
90
0
LINE
5
170
100
AcDbEntity
8
0
100
AcDbLine
10
64.999999999999929
20
219.00000000000003
30
0
11
5
21
219.00000000000003
31
0
0
ARC
5
171
100
AcDbEntity
8
0
100
AcDbCircle
10
5
20
214.00000000000003
30
0
40
5
210
0
220
-0
230
1
100
AcDbArc
50
90
51
270
0
LINE
5
172
100
AcDbEntity
8
0
100
AcDbLine
10
5
20
209.00000000000003
30
0
11
41.35786437626895
21
209.00000000000003
31
0
0
ARC
5
173
100
AcDbEntity
8
0
100
AcDbCircle
10
41.35786437626895
20
204.00000000000006
30
0
40
5.0000000000000018
210
0
220
-0
230
1
100
AcDbArc
50
44.999999999999886
51
90
0
LINE
5
174
100
AcDbEntity
8
0
100
AcDbLine
10
44.893398282201701
20
207.53553390593279
30
0
11
58.535533905932738
21
193.89339828220176
31
0
0
ARC
5
175
100
AcDbEntity
8
0
100
AcDbCircle
10
55
20
190.35786437626899
30
0
40
5
210
0
220
-0
230
1
100
AcDbArc
50
0
51
45.000000000000227
0
LINE
5
176
100
AcDbEntity
8
0
100
AcDbLine
10
60
20
190.35786437626899
30
0
11
60
21
28.642135623730951
31
0
0
ARC
5
177
100
AcDbEntity
8
0
100
AcDbCircle
10
55
20
28.642135623730951
30
0
40
4.9999999999999991
210
-0
220
0
230
1
100
AcDbArc
50
-44.99999999999995
51
0
0
LINE
5
178
100
AcDbEntity
8
0
100
AcDbLine
10
58.535533905932738
20
25.106601717798217
30
0
11
44.89339828220178
21
11.464466094067266
31
0
0
ARC
5
179
100
AcDbEntity
8
0
100
AcDbCircle
10
41.357864376269035
20
15
30
0
40
5
210
-0
220
0
230
1
100
AcDbArc
50
270
51
315.00000000000011
0
LINE
5
180
100
AcDbEntity
8
0
100
AcDbLine
10
41.357864376269035
20
10
30
0
11
5.000000074505806
21
10
31
0
0
ARC
5
181
100
AcDbEntity
8
0
100
AcDbCircle
10
5.000000074505806
20
5
30
0
40
5
210
0
220
-0
230
1
100
AcDbArc
50
90
51
168.4630409671843
0
LINE
5
182
100
AcDbEntity
8
0
100
AcDbLine
10
0.10102058893945387
20
6.0000000000000187
30
0
11
0
21
6.0000000000000142
31
0
0
LINE
5
183
100
AcDbEntity
8
0
100
AcDbLine
10
0
20
6.0000000000000142
30
0
11
0
21
5
31
0
0
ARC
5
184
100
AcDbEntity
8
0
100
AcDbCircle
10
5.000000074505806
20
5
30
0
40
5
210
0
220
0
230
1
100
AcDbArc
50
180
51
270
0
LINE
5
185
100
AcDbEntity
8
0
100
AcDbLine
10
5.000000074505806
20
0
30
0
11
69.895919517982989
21
0
31
0
0
LWPOLYLINE
5
186
100
AcDbEntity
8
0
100
AcDbPolyline
90
8
70
1
43
0.0
10
82.138248269153877
20
81.499999999999943
10
75
20
81.499999999999943
42
0.41421356237309503
10
70
20
76.499999999999929
10
70
20
20
42
0.41421356237309503
10
75
20
15
10
121.33681286245526
20
15.000000000000004
42
0.60533611629061745
10
125.44494130677828
20
22.850136958980087
10
86.246376713476906
20
79.350136958980016
42
0.24584501632051736
0
LWPOLYLINE
5
187
100
AcDbEntity
8
0
100
AcDbPolyline
90
4
70
1
43
0.0
10
80
20
96.500000000000028
10
80
20
121.50000000000003
10
70
20
121.50000000000003
10
70
20
96.500000000000028
0
LWPOLYLINE
5
188
100
AcDbEntity
8
0
100
AcDbPolyline
90
6
70
1
43
0.0
10
200.7746119055173
20
109.50000000000001
10
165
20
109.50000000000001
42
0.41421356237309503
10
159.99999999999997
20
104.50000000000001
10
160
20
52.935214563771531
42
0.73489461721982841
10
169.108128444323
20
50.085077604791444
10
204.8827403498403
20
101.6498630410199
42
0.60533611629061834
0
ENDSEC
0
SECTION
2
OBJECTS
0
DICTIONARY
5
C
100
AcDbDictionary
3
ACAD_GROUP
350
D
3
ACAD_MLINESTYLE
350
17
0
DICTIONARY
5
D
100
AcDbDictionary
0
DICTIONARY
5
1A
330
C
100
AcDbDictionary
0
DICTIONARY
5
17
100
AcDbDictionary
0
ENDSEC
0
EOF
