0
SECTION
2
HEADER
9
$INSUNITS
70
4
9
$ACADVER
1
AC1014
9
$HANDSEED
5
FFFF
0
ENDSEC
0
SECTION
2
TABLES
0
TABLE
2
VPORT
5
8
100
AcDbSymbolTable
0
ENDTAB
0
TABLE
2
LTYPE
5
5
100
AcDbSymbolTable
0
LTYPE
5
14
100
AcDbSymbolTableRecord
100
AcDbLinetypeTableRecord
2
BYBLOCK
70
0
0
LTYPE
5
15
100
AcDbSymbolTableRecord
100
AcDbLinetypeTableRecord
2
BYLAYER
70
0
0
ENDTAB
0
TABLE
2
LAYER
5
2
100
AcDbSymbolTable
70
2
0
LAYER
5
50
100
AcDbSymbolTableRecord
100
AcDbLayerTableRecord
2
0
70
0
6
CONTINUOUS
0
ENDTAB
0
TABLE
2
STYLE
5
3
100
AcDbSymbolTable
70
1
0
STYLE
5
11
100
AcDbSymbolTableRecord
100
AcDbTextStyleTableRecord
2
STANDARD
70
0
0
ENDTAB
0
TABLE
2
VIEW
5
6
100
AcDbSymbolTable
70
0
0
ENDTAB
0
TABLE
2
UCS
5
7
100
AcDbSymbolTable
70
0
0
ENDTAB
0
TABLE
2
APPID
5
9
100
AcDbSymbolTable
70
2
0
APPID
5
12
100
AcDbSymbolTableRecord
100
AcDbRegAppTableRecord
2
ACAD
70
0
0
ENDTAB
0
TABLE
2
DIMSTYLE
5
A
100
AcDbSymbolTable
70
1
0
ENDTAB
0
TABLE
2
BLOCK_RECORD
5
1
100
AcDbSymbolTable
70
1
0
BLOCK_RECORD
5
1F
100
AcDbSymbolTableRecord
100
AcDbBlockTableRecord
2
*MODEL_SPACE
0
BLOCK_RECORD
5
1B
100
AcDbSymbolTableRecord
100
AcDbBlockTableRecord
2
*PAPER_SPACE
0
ENDTAB
0
ENDSEC
0
SECTION
2
BLOCKS
0
BLOCK
5
20
100
AcDbEntity
100
AcDbBlockBegin
2
*MODEL_SPACE
0
ENDBLK
5
21
100
AcDbEntity
100
AcDbBlockEnd
0
BLOCK
5
1C
100
AcDbEntity
100
AcDbBlockBegin
2
*PAPER_SPACE
0
ENDBLK
5
1D
100
AcDbEntity
100
AcDbBlockEnd
0
ENDSEC
0
SECTION
2
ENTITIES
0
LWPOLYLINE
5
100
100
AcDbEntity
8
0
100
AcDbPolyline
90
16
70
1
43
0.0
10
448.61803398874986
20
53.999999999999993
42
-0.21342176528338369
10
447.87267799624993
20
54.333333333333314
42
1.0572796962672932
10
447.16666666666669
20
53.627322003750052
42
-0.21342176528330684
10
447.5
20
52.881966011250157
10
447.5
20
51.118033988749843
42
-0.21342176528330847
10
447.16666666666669
20
50.372677996249948
42
1.0572796962674273
10
447.87267799624993
20
49.666666666666714
42
-0.21342176528336465
10
448.61803398874986
20
50
10
481.38196601125014
20
49.999999999999936
42
-0.21342176528337475
10
482.12732200375001
20
49.666666666666671
42
1.0572796962673292
10
482.83333333333331
20
50.372677996249955
42
-0.21342176528330684
10
482.5
20
51.118033988749843
10
482.5
20
52.881966011250157
42
-0.21342176528330847
10
482.83333333333331
20
53.627322003750059
42
1.0572796962674273
10
482.12732200375007
20
54.333333333333293
42
-0.21342176528336465
10
481.38196601125014
20
54
0
LWPOLYLINE
5
101
100
AcDbEntity
8
0
100
AcDbPolyline
90
93
70
1
43
0.0
10
481.11803398874986
20
1.4016565685892601e-14
42
-0.21342176528337672
10
480.37267799624993
20
0.33333333333331827
42
1.0572796962672695
10
479.66666666666669
20
-0.37267799624995129
42
-0.21342176528330742
10
480
20
-1.1180339887498458
10
480
20
-4.0000000000000036
10
450
20
-3.9999999999999947
10
450
20
-1.1180339887498461
42
-0.21342176528330789
10
450.33333333333331
20
-0.37267799624994546
42
1.0572796962674142
10
449.62732200375007
20
0.3333333333333019
42
-0.21342176528337395
10
448.88196601125014
20
4.4263179255627785e-31
10
441.99999999999994
20
0
10
441.99999999999994
20
4.0000000000000036
10
443.49999999999994
20
4.0000000000000036
10
443.49999999999994
20
7.0000000000000018
10
441.99999999999994
20
7.0000000000000018
10
441.99999999999994
20
9.0000000000000036
10
438
20
9.0000000000000036
10
438
20
7.0000000000000018
10
436.5
20
7.0000000000000018
10
436.5
20
4.0000000000000036
10
438
20
4.0000000000000036
10
438
20
0
10
430
20
0
10
430
20
254.99999790715276
42
0.059975885433059345
10
427.85718003122105
20
272.79975611906661
10
427.35184897241834
20
274.75373256557782
42
0.33813656631729877
10
355.00000000000006
20
330
10
145.00000000000003
20
330
42
0.33813656631815753
10
72.648151027520782
20
274.75373256535482
10
72.142819968831674
20
272.79975611928228
42
0.059975878432550374
10
70
20
255
10
70
20
0
10
62.000000000000028
20
0
10
62.000000000000028
20
4.0000000000000036
10
63.500000000000014
20
4.0000000000000036
10
63.500000000000014
20
7.0000000000000018
10
62.000000000000028
20
7.0000000000000018
10
62.000000000000028
20
9.0000000000000036
10
57.999999999999972
20
9.0000000000000036
10
57.999999999999972
20
7.0000000000000018
10
56.499999999999986
20
7.0000000000000018
10
56.499999999999986
20
4.0000000000000036
10
57.999999999999972
20
4.0000000000000036
10
57.999999999999972
20
0
10
51.118033988749893
20
-2.6367796834847468e-15
42
-0.21342176528338555
10
50.372677996249962
20
0.33333333333333265
42
1.0572796962673969
10
49.666666666666657
20
-0.37267799624997144
42
-0.21342176528338241
10
50
20
-1.1180339887498969
10
50
20
-4.0000000000000036
10
20
20
-4.0000000000000036
10
20
20
-1.1180339887498929
42
-0.21342176528338788
10
20.333333333333332
20
-0.37267799624996356
42
1.05727969626741
10
19.627322003750038
20
0.3333333333333327
42
-0.21342176528338752
10
18.881966011250107
20
1.8619055999983923e-32
10
12.000000000000028
20
0
10
12.000000000000028
20
4.0000000000000036
10
13.500000000000014
20
4.0000000000000036
10
13.500000000000014
20
7.0000000000000018
10
12.000000000000028
20
7.0000000000000018
10
12.000000000000028
20
9.0000000000000036
10
7.9999999999999716
20
9.0000000000000036
10
7.9999999999999716
20
7.0000000000000018
10
6.4999999999999858
20
7.0000000000000018
10
6.4999999999999858
20
4.0000000000000036
10
7.9999999999999716
20
4.0000000000000036
10
7.9999999999999716
20
0
10
0
20
0
10
1.1102230246251565e-14
20
60.750000000018787
42
-0.063352544921502593
10
3.8222599548187208
20
90.79551077936145
10
39.514276297635256
20
228.80673737855432
42
0.21591284825419998
10
14.766108154034674
20
371.07726612938728
42
-0.48715591480375964
10
18.958232438095042
20
384.20427633002106
42
-0.088994558320587461
10
107.00081244567045
20
400
10
392.99918755432941
20
399.99999999999989
42
-0.088994558320587905
10
481.0417675619052
20
384.20427633002078
42
-0.46221958874910152
10
485.61021614612258
20
371.68177001381906
42
-3.1971285652145691e-05
10
485.63898270962579
20
371.66992459980037
42
0.21698781206184761
10
460.48595508981185
20
228.80584266355447
10
496.17774004517906
20
90.795510779361436
42
-0.06335254492150337
10
499.99999999999778
20
60.750000000018993
10
500
20
0
10
492
20
0
10
492
20
4.0000000000000036
10
493.5
20
4.0000000000000036
10
493.5
20
7.0000000000000018
10
492
20
7.0000000000000018
10
492
20
9.0000000000000036
10
488.00000000000006
20
9.0000000000000036
10
488.00000000000006
20
7.0000000000000018
10
486.50000000000006
20
7.0000000000000018
10
486.50000000000006
20
4.0000000000000036
10
488.00000000000006
20
4.0000000000000036
10
488.00000000000006
20
0
0
LWPOLYLINE
5
102
100
AcDbEntity
8
0
100
AcDbPolyline
90
16
70
1
43
0.0
10
462.11803398874986
20
378
42
-0.21342176528332449
10
461.37267799624993
20
378.33333333333326
42
1.0572796962673237
10
460.66666666666674
20
377.62732200375007
42
-0.21342176528326923
10
461
20
376.88196601125014
10
461
20
375.1180339887498
42
-0.2134217652833108
10
460.66666666666669
20
374.37267799624988
42
1.0572796962673736
10
461.37267799624993
20
373.66666666666669
42
-0.2134217652833108
10
462.11803398874986
20
374
10
469.8819660112502
20
374
42
-0.2134217652833108
10
470.62732200375012
20
373.66666666666669
42
1.0572796962673736
10
471.33333333333331
20
374.37267799624988
42
-0.2134217652833108
10
471
20
375.1180339887498
10
471.00000000000011
20
376.88196601125014
42
-0.21342176528328305
10
471.33333333333331
20
377.62732200375007
42
1.0572796962673181
10
470.62732200375001
20
378.3333333333332
42
-0.21342176528331219
10
469.8819660112502
20
378
0
LWPOLYLINE
5
103
100
AcDbEntity
8
0
100
AcDbPolyline
90
16
70
1
43
0.0
10
38.627322003750052
20
378.33333333333326
42
-0.21342176528330847
10
37.88196601125015
20
378
10
30.11803398874985
20
378
42
-0.213421765283308
10
29.372677996249948
20
378.33333333333326
42
1.05727969626742
10
28.666666666666703
20
377.62732200375007
42
-0.21342176528337417
10
29.000000000000004
20
376.88196601125014
10
29.000000000000007
20
375.1180339887498
42
-0.21342176528340179
10
28.666666666666657
20
374.37267799624988
42
1.0572796962673794
10
29.372677996249934
20
373.66666666666669
42
-0.2134217652832964
10
30.11803398874985
20
374
10
37.88196601125015
20
374
42
-0.21342176528329454
10
38.627322003750052
20
373.66666666666669
42
1.0572796962674296
10
39.333333333333321
20
374.37267799624999
42
-0.21342176528338533
10
39
20
375.11803398874986
10
38.999999999999957
20
376.88196601125009
42
-0.21342176528339657
10
39.3333333333333
20
377.62732200375001
42
1.0572796962674433
0
LWPOLYLINE
5
104
100
AcDbEntity
8
0
100
AcDbPolyline
90
16
70
1
43
0.0
10
17.872677996249962
20
49.666666666666671
42
-0.2134217652833823
10
18.618033988749897
20
50.000000000000007
10
51.3819660112501
20
50
42
-0.21342176528339923
10
52.127322003750038
20
49.666666666666671
42
1.0572796962674091
10
52.833333333333343
20
50.372677996249976
42
-0.21342176528337486
10
52.5
20
51.1180339887499
10
52.5
20
52.8819660112501
42
-0.21342176528339923
10
52.833333333333329
20
53.627322003750038
42
1.0572796962674091
10
52.127322003750024
20
54.333333333333343
42
-0.21342176528337486
10
51.3819660112501
20
54
10
18.618033988749897
20
54
42
-0.21342176528338347
10
17.872677996249962
20
54.333333333333336
42
1.0572796962674074
10
17.166666666666664
20
53.627322003750038
42
-0.21342176528338602
10
17.5
20
52.881966011250114
10
17.500000000000004
20
51.118033988749893
42
-0.21342176528338555
10
17.166666666666668
20
50.372677996249962
42
1.0572796962674091
0
LWPOLYLINE
5
105
100
AcDbEntity
8
0
100
AcDbPolyline
90
4
70
1
43
0.0
10
382.37941983778819
20
335.46966738682431
42
-0.12556346876433291
10
417.58615759051276
20
312.51497959710599
10
409.99220570901593
20
341.87870631429126
42
0.4696362895773174
10
403.0284331596614
20
345.15369961120649
0
LWPOLYLINE
5
106
100
AcDbEntity
8
0
100
AcDbPolyline
90
10
70
1
43
0.0
10
354.99999999999972
20
340.00000000000006
42
-0.0042666800691823527
10
356.45059199943665
20
339.98762135070712
42
0.11439360634335287
10
378.53421521903999
20
344.71144399845809
10
400.39993258715208
20
354.96608950150301
42
0.44069238279795764
10
402.59578398799874
20
362.01235087613964
42
0.26674926499369422
10
353.86803363659612
20
390
10
293.80387823517987
20
390
42
0.59412383037117633
10
289.6039892122713
20
382.2868962063252
10
311.0117909273182
20
349.14758482530084
42
0.25460767971476667
10
327.81134701895223
20
340
0
LWPOLYLINE
5
107
100
AcDbEntity
8
0
100
AcDbPolyline
90
8
70
1
43
0.0
10
445.46310243337041
20
286.89508878995292
42
-0.1038758875306996
10
466.7885931031438
20
359.89138391194666
42
0.56661526944030238
10
462.3798597080318
20
367.25
10
454.60073596685987
20
367.25
42
0.1100732016447232
10
446.10860244358463
20
365.35755831753318
10
431.28136240039225
20
358.40383766561501
42
0.35994783259763918
10
428.55954764801913
20
352.6410489939484
42
-0.011698762521470875
10
429.36903330238226
20
349.12643488016471
0
LWPOLYLINE
5
108
100
AcDbEntity
8
0
100
AcDbPolyline
90
8
70
1
43
0.0
10
25
20
20
10
45
20
20
42
0.41421356237309503
10
50
20
25
10
50
20
38.249999999999993
42
0.41421356237309553
10
45
20
43.249999999999993
10
25
20
43.25
42
0.41421356237309503
10
20
20
38.25
10
20
20
25
42
0.41421356237309503
0
LWPOLYLINE
5
109
100
AcDbEntity
8
0
100
AcDbPolyline
90
7
70
1
43
0.0
10
68.807307406680152
20
358.36225305061964
10
53.891397556415299
20
365.35755831753318
42
0.11007320164471202
10
45.399264033140142
20
367.25
10
37.620140291968184
20
367.24999999999994
42
0.56661526944031482
10
33.211406896856211
20
359.8913839119466
42
-0.10387588753069725
10
54.536897566629463
20
286.89508878995423
10
71.52501319441059
20
352.58346718876192
42
0.36088092964414842
0
LWPOLYLINE
5
110
100
AcDbEntity
8
0
100
AcDbPolyline
90
7
70
1
43
0.0
10
406.81761002604685
20
389.60721176597235
42
-0.079917720604820566
10
421.71473772838056
20
370.17557820411361
42
0.3978923050698322
10
428.23863219780799
20
368.02196098136062
10
442.79364727753966
20
374.84801280583667
42
0.22474521514533122
10
445.51766338882373
20
378.14766515423145
42
-0.014425279795945638
10
445.65562349009241
20
378.63322628364978
42
0.44480721261694844
10
441.89234541055794
20
385.03589613582739
42
0.036398853111204423
0
LWPOLYLINE
5
111
100
AcDbEntity
8
0
100
AcDbPolyline
90
8
70
1
43
0.0
10
479.48675296443076
20
70.868595979352392
42
-0.012176481491375082
10
479.8613997947873
20
66.013157894738214
42
-0.42972157715858933
10
474.86832980504778
20
60.750000000000014
10
445.00000000000011
20
60.749999999999993
42
-0.41421356237309503
10
440.00000000000011
20
65.75
10
440.00000000000011
20
186.54347307555162
42
-0.88084376113235707
10
449.84073916854936
20
187.79536935802611
10
478.15076816770659
20
78.328260814407642
42
-0.037946333086497877
0
LWPOLYLINE
5
112
100
AcDbEntity
8
0
100
AcDbPolyline
90
8
70
1
43
0.0
10
60
20
65.75
10
60
20
186.54347307555182
42
0.88084376113235607
10
50.15926083145078
20
187.79536935802628
10
21.849231832293661
20
78.328260814407983
42
0.03794633308649599
10
20.513247035569453
20
70.868595979352904
42
0.012176481491376737
10
20.138600205212875
20
66.013157894738242
42
0.42972157715859
10
25.131670194952349
20
60.749999999999993
10
55
20
60.749999999999993
42
0.41421356237309503
0
LWPOLYLINE
5
113
100
AcDbEntity
8
0
100
AcDbPolyline
90
8
70
1
43
0.0
10
204.16650819634341
20
340
10
295.83349180365656
20
340
42
0.59412383037117766
10
300.03338082656506
20
347.7131037936748
10
278.62557911151816
20
380.85241517469916
42
0.25460767971476644
10
261.82602301988413
20
390
10
238.1739769801159
20
390
42
0.25460767971476667
10
221.37442088848184
20
380.85241517469916
10
199.96661917343488
20
347.7131037936748
42
0.59412383037117633
0
LWPOLYLINE
5
114
100
AcDbEntity
8
0
100
AcDbPolyline
90
7
70
1
43
0.0
10
54.344376509907534
20
378.63322628364972
42
-0.014425279795941307
10
54.482336611176187
20
378.1476651542315
42
0.22474521514534113
10
57.206352722460338
20
374.84801280583656
10
71.761367802192154
20
368.02196098136051
42
0.39789230506983675
10
78.285262271619558
20
370.17557820411349
42
-0.079917720604820566
10
93.182389973953391
20
389.60721176597224
42
0.036398853111204423
10
58.107654589442063
20
385.03589613582733
42
0.44480721261695078
0
LWPOLYLINE
5
115
100
AcDbEntity
8
0
100
AcDbPolyline
90
8
70
1
43
0.0
10
450.00000000000006
20
38.250000000000064
10
450
20
25.000000000000018
42
0.41421356237309609
10
455.00000000000006
20
20
10
475.00000000000006
20
20
42
0.41421356237309398
10
480.00000000000006
20
24.999999999999982
10
480.00000000000011
20
38.250000000000028
42
0.41421356237309609
10
475.00000000000011
20
43.250000000000057
10
455.00000000000011
20
43.250000000000043
42
0.41421356237309398
0
CIRCLE
5
116
100
AcDbEntity
8
0
100
AcDbCircle
10
46.000000000000007
20
376
30
0
40
2.0000000000000018
210
0
220
0
230
1
0
CIRCLE
5
117
100
AcDbEntity
8
0
100
AcDbCircle
10
8.75
20
52
30
0
40
1.9999999999999996
210
0
220
0
230
1
0
CIRCLE
5
118
100
AcDbEntity
8
0
100
AcDbCircle
10
22
20
376
30
0
40
2.000000000000024
210
0
220
0
230
1
0
CIRCLE
5
119
100
AcDbEntity
8
0
100
AcDbCircle
10
438.75
20
52
30
0
40
2.0000000000000284
210
0
220
0
230
1
0
CIRCLE
5
120
100
AcDbEntity
8
0
100
AcDbCircle
10
454
20
375.99999999999994
30
0
40
2.0000000000000284
210
0
220
0
230
1
0
CIRCLE
5
121
100
AcDbEntity
8
0
100
AcDbCircle
10
61.25
20
52
30
0
40
2.0000000000000018
210
0
220
0
230
1
0
CIRCLE
5
122
100
AcDbEntity
8
0
100
AcDbCircle
10
478.00000000000011
20
375.99999999999994
30
0
40
2.0000000000000284
210
0
220
0
230
1
0
CIRCLE
5
123
100
AcDbEntity
8
0
100
AcDbCircle
10
491.25
20
52
30
0
40
2.0000000000000284
210
0
220
0
230
1
0
LWPOLYLINE
5
124
100
AcDbEntity
8
0
100
AcDbPolyline
90
10
70
1
43
0.0
10
99.600067412847977
20
354.96608950150295
10
121.46578478096011
20
344.71144399845809
42
0.11439360634335267
10
143.54940800056306
20
339.98762135070712
42
-0.0042666800691823527
10
145
20
340
10
172.18865298104774
20
340
42
0.25460767971476667
10
188.9882090726818
20
349.14758482530084
10
210.39601078772873
20
382.2868962063252
42
0.59412383037117633
10
206.19612176482019
20
390
10
146.1319663634039
20
390
42
0.26674926499369206
10
97.404216012001257
20
362.01235087613958
42
0.44069238279796102
0
LWPOLYLINE
5
125
100
AcDbEntity
8
0
100
AcDbPolyline
90
4
70
1
43
0.0
10
90.007794290984322
20
341.87870631429121
10
82.413842409487344
20
312.51497959710593
42
-0.12556346876433314
10
117.62058016221195
20
335.46966738682431
10
96.971566840338738
20
345.15369961120643
42
0.46963628957731629
0
ENDSEC
0
SECTION
2
OBJECTS
0
DICTIONARY
5
C
100
AcDbDictionary
3
ACAD_GROUP
350
D
3
ACAD_MLINESTYLE
350
17
0
DICTIONARY
5
D
100
AcDbDictionary
0
DICTIONARY
5
1A
330
C
100
AcDbDictionary
0
DICTIONARY
5
17
100
AcDbDictionary
0
ENDSEC
0
EOF
