0
SECTION
2
HEADER
9
$INSUNITS
70
4
9
$ACADVER
1
AC1014
9
$HANDSEED
5
FFFF
0
ENDSEC
0
SECTION
2
TABLES
0
TABLE
2
VPORT
5
8
100
AcDbSymbolTable
0
ENDTAB
0
TABLE
2
LTYPE
5
5
100
AcDbSymbolTable
0
LTYPE
5
14
100
AcDbSymbolTableRecord
100
AcDbLinetypeTableRecord
2
BYBLOCK
70
0
0
LTYPE
5
15
100
AcDbSymbolTableRecord
100
AcDbLinetypeTableRecord
2
BYLAYER
70
0
0
ENDTAB
0
TABLE
2
LAYER
5
2
100
AcDbSymbolTable
70
2
0
LAYER
5
50
100
AcDbSymbolTableRecord
100
AcDbLayerTableRecord
2
0
70
0
6
CONTINUOUS
0
ENDTAB
0
TABLE
2
STYLE
5
3
100
AcDbSymbolTable
70
1
0
STYLE
5
11
100
AcDbSymbolTableRecord
100
AcDbTextStyleTableRecord
2
STANDARD
70
0
0
ENDTAB
0
TABLE
2
VIEW
5
6
100
AcDbSymbolTable
70
0
0
ENDTAB
0
TABLE
2
UCS
5
7
100
AcDbSymbolTable
70
0
0
ENDTAB
0
TABLE
2
APPID
5
9
100
AcDbSymbolTable
70
2
0
APPID
5
12
100
AcDbSymbolTableRecord
100
AcDbRegAppTableRecord
2
ACAD
70
0
0
ENDTAB
0
TABLE
2
DIMSTYLE
5
A
100
AcDbSymbolTable
70
1
0
ENDTAB
0
TABLE
2
BLOCK_RECORD
5
1
100
AcDbSymbolTable
70
1
0
BLOCK_RECORD
5
1F
100
AcDbSymbolTableRecord
100
AcDbBlockTableRecord
2
*MODEL_SPACE
0
BLOCK_RECORD
5
1B
100
AcDbSymbolTableRecord
100
AcDbBlockTableRecord
2
*PAPER_SPACE
0
ENDTAB
0
ENDSEC
0
SECTION
2
BLOCKS
0
BLOCK
5
20
100
AcDbEntity
100
AcDbBlockBegin
2
*MODEL_SPACE
0
ENDBLK
5
21
100
AcDbEntity
100
AcDbBlockEnd
0
BLOCK
5
1C
100
AcDbEntity
100
AcDbBlockBegin
2
*PAPER_SPACE
0
ENDBLK
5
1D
100
AcDbEntity
100
AcDbBlockEnd
0
ENDSEC
0
SECTION
2
ENTITIES
0
LWPOLYLINE
5
100
100
AcDbEntity
8
0
100
AcDbPolyline
90
12
70
1
43
0.0
10
-34.410484381117328
20
-2.4286128663675299e-16
42
-0.058748100048325966
10
-35.573350447225877
20
0.13710554172792655
10
-77.162866066108535
20
10.082424494069436
42
-0.34702096402877425
10
-81
20
14.945318952341511
10
-81
20
65.054681047658505
42
-0.34702096402877558
10
-77.162866066108521
20
69.917575505930571
10
-35.573350447225877
20
79.862894458272081
42
-0.058748100048336666
10
-34.410484381117342
20
80
10
-5.0000000000000018
20
80
42
-0.41421356237309531
10
0
20
75
10
-1.1102230246251565e-15
20
5
42
-0.41421356237309498
10
-5
20
0
0
CIRCLE
5
101
100
AcDbEntity
8
0
100
AcDbCircle
10
-68.5
20
18
30
0
40
2.2499999999999964
210
0
220
-0
230
1
0
CIRCLE
5
102
100
AcDbEntity
8
0
100
AcDbCircle
10
-10
20
57
30
0
40
1.5500000000000003
210
0
220
-0
230
1
0
CIRCLE
5
103
100
AcDbEntity
8
0
100
AcDbCircle
10
-68.5
20
62
30
0
40
2.2499999999999964
210
0
220
-0
230
1
0
CIRCLE
5
104
100
AcDbEntity
8
0
100
AcDbCircle
10
-9.9999999999999929
20
23
30
0
40
1.5500000000000014
210
0
220
-0
230
1
0
CIRCLE
5
105
100
AcDbEntity
8
0
100
AcDbCircle
10
-24.999999999999993
20
23
30
0
40
1.5500000000000025
210
0
220
-0
230
1
0
CIRCLE
5
106
100
AcDbEntity
8
0
100
AcDbCircle
10
-25
20
57
30
0
40
1.5500000000000025
210
0
220
-0
230
1
0
CIRCLE
5
107
100
AcDbEntity
8
0
100
AcDbCircle
10
-25
20
5
30
0
40
1.5500000000000025
210
0
220
-0
230
1
0
CIRCLE
5
108
100
AcDbEntity
8
0
100
AcDbCircle
10
-10
20
5
30
0
40
1.5500000000000003
210
0
220
-0
230
1
0
LWPOLYLINE
5
109
100
AcDbEntity
8
0
100
AcDbPolyline
90
16
70
1
43
0.0
10
-3.4592622740244581
20
35.934136008177326
42
-0.99999999999999989
10
-5.9341360081773606
20
33.459262274024425
10
-7.7374368670764682
20
35.262563132923532
42
-0.226540919660986
10
-12.262563132923541
20
35.262563132923546
10
-14.065863991822681
20
33.459262274024447
42
-0.99999999999999989
10
-16.540737725975564
20
35.934136008177362
10
-14.737436867076465
20
37.737436867076468
42
-0.22654091966098577
10
-14.737436867076458
20
42.262563132923539
10
-16.540737725975582
20
44.065863991822667
42
-0.99999999999999989
10
-14.06586399182263
20
46.540737725975561
10
-12.262563132923534
20
44.737436867076461
42
-0.22654091966098552
10
-7.7374368670764611
20
44.737436867076461
10
-5.9341360081773429
20
46.540737725975568
42
-0.99999999999999989
10
-3.4592622740244359
20
44.06586399182266
10
-5.2625631329235496
20
42.262563132923539
42
-0.226540919660986
10
-5.2625631329235381
20
37.737436867076475
0
CIRCLE
5
110
100
AcDbEntity
8
0
100
AcDbCircle
10
-65
20
40
30
0
40
9.5
210
0
220
-0
230
1
0
CIRCLE
5
111
100
AcDbEntity
8
0
100
AcDbCircle
10
-10
20
75
30
0
40
1.5500000000000003
210
0
220
-0
230
1
0
CIRCLE
5
112
100
AcDbEntity
8
0
100
AcDbCircle
10
-25
20
75
30
0
40
1.5500000000000025
210
0
220
-0
230
1
0
ARC
5
113
100
AcDbEntity
8
0
100
AcDbCircle
10
-48.409305824053597
20
31.439417335394829
30
0
40
1.7500000000000002
210
0
220
0
230
1
100
AcDbArc
50
131.32921727034409
51
319.69227381656685
0
ARC
5
114
100
AcDbEntity
8
0
100
AcDbCircle
10
-40.000000100564705
20
39.999999923818855
30
0
40
11.999999873838107
210
0
220
0
230
1
100
AcDbArc
50
217.13038392569271
51
217.14768899725917
0
LINE
5
115
100
AcDbEntity
8
0
100
AcDbLine
10
-49.567167229252249
20
32.756429664349071
30
0
11
-46.517307233929259
21
35.806289659672068
31
0
0
ARC
5
116
100
AcDbEntity
8
0
100
AcDbCircle
10
-40.000000000000014
20
39.999999999999993
30
0
40
7.7499999999999876
210
0
220
0
230
1
100
AcDbArc
50
147.22365289171003
51
212.76018142067048
0
LINE
5
117
100
AcDbEntity
8
0
100
AcDbLine
10
-46.516123742336724
20
44.195548995608995
30
0
11
-49.645218012777519
21
47.324643266049776
31
0
0
ARC
5
118
100
AcDbEntity
8
0
100
AcDbCircle
10
-48.407781145701072
20
48.562080133126244
30
0
40
1.7500000000000029
210
0
220
-0
230
1
100
AcDbArc
50
44.999999999999332
51
225.00000000000045
0
LINE
5
119
100
AcDbEntity
8
0
100
AcDbLine
10
-47.170344278624597
20
49.799517000202691
30
0
11
-44.005480621874568
21
46.634653343452655
31
0
0
ARC
5
120
100
AcDbEntity
8
0
100
AcDbCircle
10
-40.000000000000014
20
39.999999999999993
30
0
40
7.7500000000000178
210
0
220
-0
230
1
100
AcDbArc
50
57.239818579329587
51
121.12026893428246
0
LINE
5
121
100
AcDbEntity
8
0
100
AcDbLine
10
-35.806289659672082
20
46.517307233929266
30
0
11
-32.676854202471283
21
49.646742691130044
31
0
0
ARC
5
122
100
AcDbEntity
8
0
100
AcDbCircle
10
-31.439417335394829
20
48.40930582405359
30
0
40
1.7499999999999964
210
-0
220
0
230
1
100
AcDbArc
50
-44.999999999999901
51
135
0
LINE
5
123
100
AcDbEntity
8
0
100
AcDbLine
10
-30.201980468318371
20
47.171868956977136
30
0
11
-33.366484572044264
21
44.007364853251246
31
0
0
ARC
5
124
100
AcDbEntity
8
0
100
AcDbCircle
10
-40.000000000000014
20
39.999999999999993
30
0
40
7.750000000000016
210
-0
220
0
230
1
100
AcDbArc
50
-31.120268934282379
51
31.13654224322881
0
LINE
5
125
100
AcDbEntity
8
0
100
AcDbLine
10
-33.365346656547345
20
35.994519378125446
30
0
11
-30.200482999799704
21
32.82965572137779
31
0
0
ARC
5
126
100
AcDbEntity
8
0
100
AcDbCircle
10
-31.437919866876154
20
31.592218854301336
30
0
40
1.7499999999999902
210
0
220
0
230
1
100
AcDbArc
50
-135
51
45.000000000000071
0
LINE
5
127
100
AcDbEntity
8
0
100
AcDbLine
10
-32.675356733952604
20
30.354781987224886
30
0
11
-35.804451004390998
21
33.483876257663276
31
0
0
ARC
5
128
100
AcDbEntity
8
0
100
AcDbCircle
10
-40.000000000000014
20
39.999999999999993
30
0
40
7.7499999999999938
210
0
220
0
230
1
100
AcDbArc
50
238.8634577567712
51
302.77634710829
0
LINE
5
129
100
AcDbEntity
8
0
100
AcDbLine
10
-44.007364853251246
20
33.366484572044264
30
0
11
-47.069992962980976
21
30.303856462314528
31
0
0
ARC
5
130
100
AcDbEntity
8
0
100
AcDbCircle
10
-39.999999960653724
20
40.000000053939871
30
0
40
12.000000066765571
210
0
220
0
230
1
100
AcDbArc
50
233.87380208977532
51
233.90214696571533
0
ENDSEC
0
SECTION
2
OBJECTS
0
DICTIONARY
5
C
100
AcDbDictionary
3
ACAD_GROUP
350
D
3
ACAD_MLINESTYLE
350
17
0
DICTIONARY
5
D
100
AcDbDictionary
0
DICTIONARY
5
1A
330
C
100
AcDbDictionary
0
DICTIONARY
5
17
100
AcDbDictionary
0
ENDSEC
0
EOF
