0
SECTION
2
HEADER
9
$INSUNITS
70
4
9
$ACADVER
1
AC1014
9
$HANDSEED
5
FFFF
0
ENDSEC
0
SECTION
2
TABLES
0
TABLE
2
VPORT
5
8
100
AcDbSymbolTable
0
ENDTAB
0
TABLE
2
LTYPE
5
5
100
AcDbSymbolTable
0
LTYPE
5
14
100
AcDbSymbolTableRecord
100
AcDbLinetypeTableRecord
2
BYBLOCK
70
0
0
LTYPE
5
15
100
AcDbSymbolTableRecord
100
AcDbLinetypeTableRecord
2
BYLAYER
70
0
0
ENDTAB
0
TABLE
2
LAYER
5
2
100
AcDbSymbolTable
70
2
0
LAYER
5
50
100
AcDbSymbolTableRecord
100
AcDbLayerTableRecord
2
0
70
0
6
CONTINUOUS
0
ENDTAB
0
TABLE
2
STYLE
5
3
100
AcDbSymbolTable
70
1
0
STYLE
5
11
100
AcDbSymbolTableRecord
100
AcDbTextStyleTableRecord
2
STANDARD
70
0
0
ENDTAB
0
TABLE
2
VIEW
5
6
100
AcDbSymbolTable
70
0
0
ENDTAB
0
TABLE
2
UCS
5
7
100
AcDbSymbolTable
70
0
0
ENDTAB
0
TABLE
2
APPID
5
9
100
AcDbSymbolTable
70
2
0
APPID
5
12
100
AcDbSymbolTableRecord
100
AcDbRegAppTableRecord
2
ACAD
70
0
0
ENDTAB
0
TABLE
2
DIMSTYLE
5
A
100
AcDbSymbolTable
70
1
0
ENDTAB
0
TABLE
2
BLOCK_RECORD
5
1
100
AcDbSymbolTable
70
1
0
BLOCK_RECORD
5
1F
100
AcDbSymbolTableRecord
100
AcDbBlockTableRecord
2
*MODEL_SPACE
0
BLOCK_RECORD
5
1B
100
AcDbSymbolTableRecord
100
AcDbBlockTableRecord
2
*PAPER_SPACE
0
ENDTAB
0
ENDSEC
0
SECTION
2
BLOCKS
0
BLOCK
5
20
100
AcDbEntity
100
AcDbBlockBegin
2
*MODEL_SPACE
0
ENDBLK
5
21
100
AcDbEntity
100
AcDbBlockEnd
0
BLOCK
5
1C
100
AcDbEntity
100
AcDbBlockBegin
2
*PAPER_SPACE
0
ENDBLK
5
1D
100
AcDbEntity
100
AcDbBlockEnd
0
ENDSEC
0
SECTION
2
ENTITIES
0
LWPOLYLINE
5
100
100
AcDbEntity
8
0
100
AcDbPolyline
90
10
70
1
43
0.0
10
-34.47041832727777
20
-3.4694469519536142e-16
42
-0.052810469818143538
10
-35.517831508929206
20
0.11093816495405751
10
-84.784479089908501
20
10.665628989724297
42
-0.80845506966141656
10
-84.784478972601363
20
69.334371035407116
10
-35.517831508929191
20
79.88906183504595
42
-0.05281046981814632
10
-34.470418327277756
20
80
10
-5.0000000000000018
20
80
42
-0.41421356237309531
10
0
20
75
10
-1.1102230246251565e-15
20
5
42
-0.41421356237309498
10
-5
20
0
0
CIRCLE
5
101
100
AcDbEntity
8
0
100
AcDbCircle
10
-25
20
5
30
0
40
1.5500000000000025
210
0
220
-0
230
1
0
CIRCLE
5
102
100
AcDbEntity
8
0
100
AcDbCircle
10
-25
20
57
30
0
40
1.5500000000000025
210
0
220
-0
230
1
0
CIRCLE
5
103
100
AcDbEntity
8
0
100
AcDbCircle
10
-94
20
55.500000000000007
30
0
40
1.5499999999999934
210
0
220
-0
230
1
0
ARC
5
104
100
AcDbEntity
8
0
100
AcDbCircle
10
-15.293344397192266
20
34.686761336744482
30
0
40
1.7485548489895133
210
0
220
0
230
1
100
AcDbArc
50
134.99999999999972
51
314.99999999999972
0
LINE
5
105
100
AcDbEntity
8
0
100
AcDbLine
10
-16.529759388189365
20
35.923176327741594
30
0
11
-14.73032667266928
21
37.722609043261663
31
0
0
ARC
5
106
100
AcDbEntity
8
0
100
AcDbCircle
10
-10.000000000000034
20
40
30
0
40
5.2499999999999689
210
0
220
0
230
1
100
AcDbArc
50
153.15079000015589
51
205.70824540852573
0
LINE
5
107
100
AcDbEntity
8
0
100
AcDbLine
10
-14.684040766033759
20
42.371130975322508
30
0
11
-16.459289565389753
21
44.146379774678508
31
0
0
ARC
5
108
100
AcDbEntity
8
0
100
AcDbCircle
10
-15.232517799482659
20
45.373151540585582
30
0
40
1.7349172692822186
210
0
220
-0
230
1
100
AcDbArc
50
45.000000000000497
51
224.99999999999952
0
LINE
5
109
100
AcDbEntity
8
0
100
AcDbLine
10
-14.005746033575564
20
46.599923306492698
30
0
11
-12.181245888737378
21
44.775423161654508
31
0
0
ARC
5
110
100
AcDbEntity
8
0
100
AcDbCircle
10
-10.000000000000034
20
40
30
0
40
5.2500000000000115
210
0
220
-0
230
1
100
AcDbArc
50
64.291754591473861
51
114.5492587161208
0
LINE
5
111
100
AcDbEntity
8
0
100
AcDbLine
10
-7.7226090432616434
20
44.730326672669271
30
0
11
-5.9231763277415546
21
46.529759388189341
31
0
0
ARC
5
112
100
AcDbEntity
8
0
100
AcDbCircle
10
-4.686761336744472
20
45.29334439719225
30
0
40
1.7485548489894773
210
0
220
0
230
1
100
AcDbArc
50
-44.999999999999851
51
134.9999999999998
0
LINE
5
113
100
AcDbEntity
8
0
100
AcDbLine
10
-3.4503463457473886
20
44.056929406195174
30
0
11
-5.2568062449391784
21
42.25046950700338
31
0
0
ARC
5
114
100
AcDbEntity
8
0
100
AcDbCircle
10
-10.000000000000034
20
40
30
0
40
5.2500000000000284
210
-0
220
0
230
1
100
AcDbArc
50
-24.549258716121038
51
25.382604838514421
0
LINE
5
115
100
AcDbEntity
8
0
100
AcDbLine
10
-5.2245768383455005
20
37.818754111262621
30
0
11
-3.4000766752270017
21
35.994253948144113
31
0
0
ARC
5
116
100
AcDbEntity
8
0
100
AcDbCircle
10
-4.6268484594144095
20
34.76748220051735
30
0
40
1.7349172692821919
210
0
220
0
230
1
100
AcDbArc
50
-135.00000000000011
51
44.999999146226429
0
LINE
5
117
100
AcDbEntity
8
0
100
AcDbLine
10
-5.8536202253214942
20
33.540710434610268
30
0
11
-7.628869024677476
21
35.31595923396624
31
0
0
ARC
5
118
100
AcDbEntity
8
0
100
AcDbCircle
10
-10.000000000000034
20
40
30
0
40
5.2499999999999849
210
0
220
0
230
1
100
AcDbArc
50
244.61739516148569
51
296.84920999984445
0
LINE
5
119
100
AcDbEntity
8
0
100
AcDbLine
10
-12.250469507003384
20
35.256806244939185
30
0
11
-14.056929387771149
21
33.450346364171402
31
0
0
CIRCLE
5
120
100
AcDbEntity
8
0
100
AcDbCircle
10
-78.5
20
40
30
0
40
15.000000000000009
210
0
220
-0
230
1
0
CIRCLE
5
121
100
AcDbEntity
8
0
100
AcDbCircle
10
-24.999999999999993
20
23
30
0
40
1.5500000000000025
210
0
220
-0
230
1
0
CIRCLE
5
122
100
AcDbEntity
8
0
100
AcDbCircle
10
-10
20
57
30
0
40
1.5500000000000003
210
0
220
-0
230
1
0
CIRCLE
5
123
100
AcDbEntity
8
0
100
AcDbCircle
10
-10
20
5
30
0
40
1.5500000000000003
210
0
220
-0
230
1
0
CIRCLE
5
124
100
AcDbEntity
8
0
100
AcDbCircle
10
-9.9999999999999929
20
23
30
0
40
1.5500000000000014
210
0
220
-0
230
1
0
CIRCLE
5
125
100
AcDbEntity
8
0
100
AcDbCircle
10
-25
20
75
30
0
40
1.5500000000000025
210
0
220
-0
230
1
0
CIRCLE
5
126
100
AcDbEntity
8
0
100
AcDbCircle
10
-63
20
24.499999999999996
30
0
40
1.5499999999999956
210
0
220
-0
230
1
0
CIRCLE
5
127
100
AcDbEntity
8
0
100
AcDbCircle
10
-10
20
75
30
0
40
1.5500000000000003
210
0
220
-0
230
1
0
CIRCLE
5
128
100
AcDbEntity
8
0
100
AcDbCircle
10
-63.000000000000007
20
55.5
30
0
40
1.5499999999999956
210
0
220
-0
230
1
0
ARC
5
129
100
AcDbEntity
8
0
100
AcDbCircle
10
-31.514669461125454
20
48.485232209317736
30
0
40
1.7499999999999964
210
-0
220
0
230
1
100
AcDbArc
50
-45.00000000000005
51
135.00000000000011
0
LINE
5
130
100
AcDbEntity
8
0
100
AcDbLine
10
-30.277232594048996
20
47.247795342241275
30
0
11
-33.423986238427503
21
44.101041697862769
31
0
0
ARC
5
131
100
AcDbEntity
8
0
100
AcDbCircle
10
-40.000000000000028
20
40.000000000000007
30
0
40
7.7500000000000302
210
0
220
0
230
1
100
AcDbArc
50
-31.950222719897447
51
31.949167399616591
0
LINE
5
132
100
AcDbEntity
8
0
100
AcDbLine
10
-33.424061775865404
20
35.898837180461427
30
0
11
-30.277330923321003
21
32.752106327917019
31
0
0
ARC
5
133
100
AcDbEntity
8
0
100
AcDbCircle
10
-31.514767790397453
20
31.514669460840558
30
0
40
1.7499999999999902
210
0
220
0
230
1
100
AcDbArc
50
-134.9999999999996
51
45.000000000000249
0
LINE
5
134
100
AcDbEntity
8
0
100
AcDbLine
10
-32.752204657473897
20
30.277232593764097
30
0
11
-35.898958302137274
21
33.423986238427467
31
0
0
ARC
5
135
100
AcDbEntity
8
0
100
AcDbCircle
10
-40.000000000000028
20
40.000000000000007
30
0
40
7.7499999999999956
210
0
220
0
230
1
100
AcDbArc
50
238.05083260038344
51
301.94916739961644
0
LINE
5
136
100
AcDbEntity
8
0
100
AcDbLine
10
-44.101041697862769
20
33.423986238427503
30
0
11
-47.247795342526125
21
30.277232593764147
31
0
0
ARC
5
137
100
AcDbEntity
8
0
100
AcDbCircle
10
-48.485232209602593
20
31.514669460840601
30
0
40
1.7499999999999936
210
0
220
0
230
1
100
AcDbArc
50
135
51
314.9999991462264
0
LINE
5
138
100
AcDbEntity
8
0
100
AcDbLine
10
-49.722669076679047
20
32.752106327917055
30
0
11
-46.575938224134617
21
35.89883718046147
31
0
0
ARC
5
139
100
AcDbEntity
8
0
100
AcDbCircle
10
-40.000000000000028
20
40.000000000000007
30
0
40
7.7499999999999751
210
0
220
0
230
1
100
AcDbArc
50
148.05083260038359
51
211.95022271989728
0
LINE
5
140
100
AcDbEntity
8
0
100
AcDbLine
10
-46.576013761572526
20
44.101041697862726
30
0
11
-49.722767405951032
21
47.247795342241226
31
0
0
ARC
5
141
100
AcDbEntity
8
0
100
AcDbCircle
10
-48.485330538874592
20
48.485232209317672
30
0
40
1.7500000000000027
210
0
220
-0
230
1
100
AcDbArc
50
45.000000000000327
51
225.00000000000014
0
LINE
5
142
100
AcDbEntity
8
0
100
AcDbLine
10
-47.247893671798138
20
49.722669076394141
30
0
11
-44.101162819538587
21
46.575938224134589
31
0
0
ARC
5
143
100
AcDbEntity
8
0
100
AcDbCircle
10
-40.000000000000028
20
40.000000000000007
30
0
40
7.7500000000000107
210
0
220
-0
230
1
100
AcDbArc
50
58.049777280102617
51
121.95022271989744
0
LINE
5
144
100
AcDbEntity
8
0
100
AcDbLine
10
-35.898837180461463
20
46.575938224134617
30
0
11
-32.752106328201911
21
49.72266907639419
31
0
0
CIRCLE
5
145
100
AcDbEntity
8
0
100
AcDbCircle
10
-94
20
24.5
30
0
40
1.5499999999999934
210
0
220
-0
230
1
0
ENDSEC
0
SECTION
2
OBJECTS
0
DICTIONARY
5
C
100
AcDbDictionary
3
ACAD_GROUP
350
D
3
ACAD_MLINESTYLE
350
17
0
DICTIONARY
5
D
100
AcDbDictionary
0
DICTIONARY
5
1A
330
C
100
AcDbDictionary
0
DICTIONARY
5
17
100
AcDbDictionary
0
ENDSEC
0
EOF
