0
SECTION
2
HEADER
9
$INSUNITS
70
4
9
$ACADVER
1
AC1014
9
$HANDSEED
5
FFFF
0
ENDSEC
0
SECTION
2
TABLES
0
TABLE
2
VPORT
5
8
100
AcDbSymbolTable
0
ENDTAB
0
TABLE
2
LTYPE
5
5
100
AcDbSymbolTable
0
LTYPE
5
14
100
AcDbSymbolTableRecord
100
AcDbLinetypeTableRecord
2
BYBLOCK
70
0
0
LTYPE
5
15
100
AcDbSymbolTableRecord
100
AcDbLinetypeTableRecord
2
BYLAYER
70
0
0
ENDTAB
0
TABLE
2
LAYER
5
2
100
AcDbSymbolTable
70
2
0
LAYER
5
50
100
AcDbSymbolTableRecord
100
AcDbLayerTableRecord
2
0
70
0
6
CONTINUOUS
0
ENDTAB
0
TABLE
2
STYLE
5
3
100
AcDbSymbolTable
70
1
0
STYLE
5
11
100
AcDbSymbolTableRecord
100
AcDbTextStyleTableRecord
2
STANDARD
70
0
0
ENDTAB
0
TABLE
2
VIEW
5
6
100
AcDbSymbolTable
70
0
0
ENDTAB
0
TABLE
2
UCS
5
7
100
AcDbSymbolTable
70
0
0
ENDTAB
0
TABLE
2
APPID
5
9
100
AcDbSymbolTable
70
2
0
APPID
5
12
100
AcDbSymbolTableRecord
100
AcDbRegAppTableRecord
2
ACAD
70
0
0
ENDTAB
0
TABLE
2
DIMSTYLE
5
A
100
AcDbSymbolTable
70
1
0
ENDTAB
0
TABLE
2
BLOCK_RECORD
5
1
100
AcDbSymbolTable
70
1
0
BLOCK_RECORD
5
1F
100
AcDbSymbolTableRecord
100
AcDbBlockTableRecord
2
*MODEL_SPACE
0
BLOCK_RECORD
5
1B
100
AcDbSymbolTableRecord
100
AcDbBlockTableRecord
2
*PAPER_SPACE
0
ENDTAB
0
ENDSEC
0
SECTION
2
BLOCKS
0
BLOCK
5
20
100
AcDbEntity
100
AcDbBlockBegin
2
*MODEL_SPACE
0
ENDBLK
5
21
100
AcDbEntity
100
AcDbBlockEnd
0
BLOCK
5
1C
100
AcDbEntity
100
AcDbBlockBegin
2
*PAPER_SPACE
0
ENDBLK
5
1D
100
AcDbEntity
100
AcDbBlockEnd
0
ENDSEC
0
SECTION
2
ENTITIES
0
LWPOLYLINE
5
100
100
AcDbEntity
8
0
100
AcDbPolyline
90
82
70
1
43
0.0
10
90
20
53.1180339887499
42
-0.21342176528338427
10
89.666666666666671
20
52.372677996249976
42
1.0572796962674273
10
90.37267799624999
20
51.666666666666679
42
-0.21342176528338161
10
91.118033988749914
20
52
10
94
20
52
10
94
20
18
10
91.118033988749886
20
18
42
-0.21342176528338508
10
90.372677996249976
20
18.333333333333336
42
1.0572796962674236
10
89.666666666666686
20
17.627322003750024
42
-0.21342176528337869
10
90
20
16.8819660112501
10
90
20
10.75
10
86
20
10.75
10
86
20
12.75
10
82.599999999999994
20
12.75
10
82.599999999999994
20
10.75
10
81
20
10.75
10
81
20
6.75
10
82.599999999999994
20
6.75
10
82.599999999999994
20
4.7500000000000009
10
86
20
4.7500000000000009
10
86
20
6.75
10
90
20
6.75
10
90
20
0
10
0
20
0
10
0
20
6.75
10
4.0000000000000036
20
6.75
10
4.0000000000000036
20
4.7500000000000009
10
7.4000000000000021
20
4.7500000000000009
10
7.4000000000000021
20
6.75
10
9.0000000000000036
20
6.75
10
9.0000000000000036
20
10.750000000000002
10
7.4000000000000021
20
10.750000000000002
10
7.4000000000000021
20
12.750000000000002
10
4.0000000000000036
20
12.750000000000002
10
4.0000000000000036
20
10.750000000000002
10
0
20
10.750000000000002
10
5.5511151231257827e-16
20
16.881966011250103
42
-0.21342176528338846
10
0.33333333333333298
20
17.627322003750034
42
1.0572796962674049
10
-0.37267799624996351
20
18.333333333333336
42
-0.21342176528338588
10
-1.118033988749894
20
18
10
-4.0000000000000036
20
18
10
-4.0000000000000036
20
52
10
-1.1180339887498967
20
52
42
-0.21342176528340226
10
-0.37267799624996378
20
51.666666666666671
42
1.0572796962674227
10
0.33333333333333443
20
52.372677996249962
42
-0.21342176528338544
10
0
20
53.118033988749893
10
0
20
59.25
10
4.0000000000000036
20
59.25
10
4.0000000000000036
20
57.25
10
7.4000000000000021
20
57.25
10
7.4000000000000021
20
59.25
10
9.0000000000000036
20
59.25
10
9.0000000000000036
20
63.250000000000014
10
7.4000000000000021
20
63.250000000000014
10
7.4000000000000021
20
65.25
10
4.0000000000000036
20
65.25
10
4.0000000000000036
20
63.250000000000014
10
0
20
63.250000000000014
10
0
20
70
10
3.2580024526545848
20
69.999999999999986
42
-0.066218628116919601
10
9.7933892324503304
20
69.130659328714387
10
17.619924675554092
20
67.010972685689353
42
0.23419188581616801
10
39.398080476592163
20
71.326032286788745
10
41.189308415241676
20
72.703899931903763
42
-0.34012194668567242
10
48.810692925862831
20
72.703899931903763
10
50.632197024497444
20
71.302742932954061
42
0.23419188829501478
10
72.410353052359966
20
66.987683393286289
10
80.32287920896465
20
69.130659267282766
42
-0.066218630477186194
10
86.858266215584877
20
70
10
90
20
70
10
90
20
63.250000000000014
10
86
20
63.250000000000014
10
86
20
65.25
10
82.599999999999994
20
65.25
10
82.599999999999994
20
63.250000000000014
10
81
20
63.250000000000014
10
81
20
59.25
10
82.599999999999994
20
59.25
10
82.599999999999994
20
57.25
10
86
20
57.25
10
86
20
59.25
10
90
20
59.25
0
CIRCLE
5
101
100
AcDbEntity
8
0
100
AcDbCircle
10
45.000000670552254
20
51.5
30
0
40
4.5000000000000018
210
0
220
-0
230
1
0
CIRCLE
5
102
100
AcDbEntity
8
0
100
AcDbCircle
10
29.500219356390875
20
36.999780643609121
30
0
40
2.0000000000000018
210
0
220
-0
230
1
0
CIRCLE
5
103
100
AcDbEntity
8
0
100
AcDbCircle
10
29.500219356390886
20
6.0002193563908701
30
0
40
2.0000000000000018
210
0
220
-0
230
1
0
CIRCLE
5
104
100
AcDbEntity
8
0
100
AcDbCircle
10
60.499780643609128
20
36.999780643609128
30
0
40
2.0000000000000018
210
0
220
-0
230
1
0
CIRCLE
5
105
100
AcDbEntity
8
0
100
AcDbCircle
10
60.499780643609135
20
6.0002193563908808
30
0
40
2.0000000000000018
210
0
220
-0
230
1
0
LWPOLYLINE
5
106
100
AcDbEntity
8
0
100
AcDbPolyline
90
16
70
1
43
0.0
10
61.948001696841253
20
32.73918728340972
42
-0.62212369618384733
10
56.239187283409713
20
38.448001696841246
42
0.36789819416065195
10
55.283902506965561
20
40.857885969992367
42
0.24913830408954607
10
34.716097493034432
20
40.857885969992367
42
0.36789819416065156
10
33.76081271659028
20
38.448001696841239
42
-0.62212369618384733
10
28.051998303158754
20
32.739187283409713
42
0.36789819416065439
10
25.642114030007619
20
31.783902506965536
42
0.24913830408954588
10
25.642114030007626
20
11.216097493034432
42
0.36789819416065167
10
28.051998303158751
20
10.260812716590273
42
-0.46591206196673607
10
33.946669660479834
20
6.6923751865818062
42
0.3696735185587634
10
35.922869795630476
20
5
10
54.077130204369539
20
4.9999999999999991
42
0.3696735185587639
10
56.05333033952018
20
6.692375186581808
42
-0.46591206196673607
10
61.948001696841253
20
10.260812716590287
42
0.367898194160653
10
64.357885969992381
20
11.216097493034455
42
0.24913830408954546
10
64.357885969992367
20
31.783902506965561
42
0.36789819416065156
0
LWPOLYLINE
5
107
100
AcDbEntity
8
0
100
AcDbPolyline
90
31
70
1
43
0.0
10
13.200000000000003
20
16.109591794226542
42
-0.236067977499789
10
14.000000000000002
20
14.509591794226544
10
14.000000000000002
20
7
42
0.41421356237309503
10
16
20
5
10
20.557283293381641
20
5.0000000000000018
42
0.58129811368600137
10
22.277390028541276
20
8.020408163265305
42
-0.30746536626401677
10
24.091920185365371
20
37.651427133998666
10
30.36915762029259
20
45.77733329795619
42
0.62296578324299889
10
28.78641123008558
20
48.999999999999993
10
28.750000670552257
20
48.999999999999993
42
-0.57782087560398909
10
23.341758323659121
20
58.38263702290449
42
0.51361930001896572
10
22.004287902364617
20
61.346055017976468
42
0.29080837046308844
10
18.501938303904218
20
59.995137472495173
42
-0.29827187246464842
10
16.446881402961935
20
59.234723687742076
42
0.48186523658744462
10
14.000000000000004
20
57.285288638378603
10
14.000000000000004
20
55.49040820577347
42
-0.23606797749978878
10
13.200000000000006
20
53.890408205773461
42
0.10420537434719984
10
12.656440422583728
20
53.270204102886723
42
-0.27106682999683401
10
10.912880845167461
20
52.25
10
7
20
52.25
42
0.41421356237309503
10
5
20
50.249999999999993
10
4.9999999999999982
20
49
42
-0.41421356237309431
10
3.0000000000000009
20
47
42
0.4142135623730957
10
0.99999999999999645
20
45
10
0.99999999999999556
20
25.000000000000004
42
0.41421356237309531
10
2.9999999999999978
20
23.000000000000004
42
-0.41421356237309631
10
5
20
21
10
4.9999999999999991
20
19.75
42
0.41421356237309537
10
7.0000000000000018
20
17.750000000000004
10
10.912880845167461
20
17.75
42
-0.27106682999683712
10
12.656440422583731
20
16.729795897113274
42
0.10420537434720033
0
LWPOLYLINE
5
108
100
AcDbEntity
8
0
100
AcDbPolyline
90
31
70
1
43
0.0
10
76.799999999999997
20
53.890408205773454
42
-0.23606797749978972
10
76
20
55.490408205773456
10
76
20
57.282113835523781
42
0.48170665675009788
10
73.554122265182386
20
59.231778690208792
42
-0.29829883167060323
10
71.499339458895875
20
59.993409677109888
42
0.29097477712128023
10
67.995713620202991
20
61.346055269966506
42
0.5136193558337252
10
66.658242932678235
20
58.382637169248035
42
-0.57782088462739212
10
61.250000670553362
20
49
10
61.213589349944485
20
49
42
0.62296576772992462
10
59.630842905080009
20
45.777333368710472
10
65.908080536659654
20
37.651426199334651
42
-0.30746535403163516
10
67.722609971458724
20
8.0204081632653104
42
0.58129811368600182
10
69.442716706618356
20
5
10
74
20
4.9999999999999991
42
0.41421356237309503
10
76
20
7
10
76
20
14.509591794226546
42
-0.23606797749979042
10
76.799999999999997
20
16.109591794226542
42
0.10420537434720868
10
77.343559577416258
20
16.72979589711327
42
-0.2710668299968389
10
79.087119154832536
20
17.75
10
83
20
17.749999999999996
42
0.41421356237309503
10
85
20
19.749999999999996
10
85
20
20.999999999999996
42
-0.41421356237309892
10
87.000000000000014
20
23
42
0.41421356237309503
10
89
20
25
10
89.000000000000028
20
45
42
0.41421356237309503
10
87.000000000000028
20
47
42
-0.41421356237310153
10
85
20
49
10
85
20
50.249999999999993
42
0.41421356237309503
10
83
20
52.25
10
79.087119154832536
20
52.25
42
-0.27106682999683401
10
77.343559577416258
20
53.270204102886723
42
0.10420537434719213
0
CIRCLE
5
109
100
AcDbEntity
8
0
100
AcDbCircle
10
45.000000670552254
20
67.75
30
0
40
2.2499999999999964
210
0
220
0
230
1
0
CIRCLE
5
110
100
AcDbEntity
8
0
100
AcDbCircle
10
28.753692347875493
20
55.25
30
0
40
2.2500000000000009
210
0
220
0
230
1
0
CIRCLE
5
111
100
AcDbEntity
8
0
100
AcDbCircle
10
61.250000670552254
20
55.25
30
0
40
2.2499999999999964
210
0
220
0
230
1
0
LWPOLYLINE
5
112
100
AcDbEntity
8
0
100
AcDbPolyline
90
16
70
1
43
0.0
10
39.211072991485139
20
54.971428571428582
42
-0.56635211395485341
10
50.788928349619368
20
54.971428571428582
42
0.26351262245373047
10
52.504166180454064
20
54
10
53.034162307974768
20
54
42
0.38779458240879977
10
55.02588069890264
20
55.81818181818182
42
-0.11896299570897795
10
55.97018730129313
20
58.594558384270279
42
0.38779458240879927
10
55.500068544829595
20
61.25006504544595
10
52.274209698399154
20
63.731494927315538
42
0.38779458240880055
10
49.58696090248219
20
63.504732537201775
42
-0.43705034180300595
10
40.413040438622318
20
63.504732537201775
42
0.38779458240880005
10
37.725791642705346
20
63.731494927315538
10
34.499932796274926
20
61.250065045445965
42
0.38779458240880132
10
34.029814039811384
20
58.594558384270272
42
-0.1189629957089775
10
34.974120642201868
20
55.81818181818182
42
0.38779458240879988
10
36.965839033129747
20
54
10
37.495835160650437
20
54
42
0.26351262245373075
0
ENDSEC
0
SECTION
2
OBJECTS
0
DICTIONARY
5
C
100
AcDbDictionary
3
ACAD_GROUP
350
D
3
ACAD_MLINESTYLE
350
17
0
DICTIONARY
5
D
100
AcDbDictionary
0
DICTIONARY
5
1A
330
C
100
AcDbDictionary
0
DICTIONARY
5
17
100
AcDbDictionary
0
ENDSEC
0
EOF
