0
SECTION
2
HEADER
9
$INSUNITS
70
4
9
$ACADVER
1
AC1014
9
$HANDSEED
5
FFFF
0
ENDSEC
0
SECTION
2
TABLES
0
TABLE
2
VPORT
5
8
100
AcDbSymbolTable
0
ENDTAB
0
TABLE
2
LTYPE
5
5
100
AcDbSymbolTable
0
LTYPE
5
14
100
AcDbSymbolTableRecord
100
AcDbLinetypeTableRecord
2
BYBLOCK
70
0
0
LTYPE
5
15
100
AcDbSymbolTableRecord
100
AcDbLinetypeTableRecord
2
BYLAYER
70
0
0
ENDTAB
0
TABLE
2
LAYER
5
2
100
AcDbSymbolTable
70
2
0
LAYER
5
50
100
AcDbSymbolTableRecord
100
AcDbLayerTableRecord
2
0
70
0
6
CONTINUOUS
0
ENDTAB
0
TABLE
2
STYLE
5
3
100
AcDbSymbolTable
70
1
0
STYLE
5
11
100
AcDbSymbolTableRecord
100
AcDbTextStyleTableRecord
2
STANDARD
70
0
0
ENDTAB
0
TABLE
2
VIEW
5
6
100
AcDbSymbolTable
70
0
0
ENDTAB
0
TABLE
2
UCS
5
7
100
AcDbSymbolTable
70
0
0
ENDTAB
0
TABLE
2
APPID
5
9
100
AcDbSymbolTable
70
2
0
APPID
5
12
100
AcDbSymbolTableRecord
100
AcDbRegAppTableRecord
2
ACAD
70
0
0
ENDTAB
0
TABLE
2
DIMSTYLE
5
A
100
AcDbSymbolTable
70
1
0
ENDTAB
0
TABLE
2
BLOCK_RECORD
5
1
100
AcDbSymbolTable
70
1
0
BLOCK_RECORD
5
1F
100
AcDbSymbolTableRecord
100
AcDbBlockTableRecord
2
*MODEL_SPACE
0
BLOCK_RECORD
5
1B
100
AcDbSymbolTableRecord
100
AcDbBlockTableRecord
2
*PAPER_SPACE
0
ENDTAB
0
ENDSEC
0
SECTION
2
BLOCKS
0
BLOCK
5
20
100
AcDbEntity
100
AcDbBlockBegin
2
*MODEL_SPACE
0
ENDBLK
5
21
100
AcDbEntity
100
AcDbBlockEnd
0
BLOCK
5
1C
100
AcDbEntity
100
AcDbBlockBegin
2
*PAPER_SPACE
0
ENDBLK
5
1D
100
AcDbEntity
100
AcDbBlockEnd
0
ENDSEC
0
SECTION
2
ENTITIES
0
CIRCLE
5
100
100
AcDbEntity
8
0
100
AcDbCircle
10
-20.092306679398586
20
60
30
0
40
1.9999999999999996
210
0
220
-0
230
1
0
CIRCLE
5
101
100
AcDbEntity
8
0
100
AcDbCircle
10
-20
20
30
30
0
40
2.0000000000000018
210
0
220
-0
230
1
0
LWPOLYLINE
5
102
100
AcDbEntity
8
0
100
AcDbPolyline
90
8
70
1
43
0.0
10
-24.825081354719135
20
50.128907556722311
42
-0.064545506562157767
10
-24.82853202277505
20
39.844473300184681
42
0.54259185945375443
10
-22.276171002017762
20
37.66935757215515
42
-0.14526256048062752
10
-17.723828997982228
20
37.669357572155143
42
0.54259185945375665
10
-15.171467977224932
20
39.844473300184752
42
-0.064889047053023938
10
-15.167862950966409
20
50.183188124506501
42
0.54607111214308712
10
-17.739262111804777
20
52.353878024585455
42
-0.14527447623710832
10
-22.291733776730503
20
52.308282347646781
42
0.53914628533091802
0
LWPOLYLINE
5
103
100
AcDbEntity
8
0
100
AcDbPolyline
90
22
70
1
43
0.0
10
-16.499999999999996
20
10.313992673904512
42
-0.2277350772923705
10
-15.75
20
11.875242173504109
42
0.16634647129734659
10
-15.055585991474079
20
12.968245836551855
42
-0.34657462036421299
10
-13.11117198294815
20
14.500000000000002
10
-7.7338815627714492
20
14.500000000000002
42
0.50634545705307965
10
-5.8256167581178842
20
17.0987699352176
42
0.07697540994510145
10
-8.2602042465349221
20
22.041269322937399
42
-0.022575548243748866
10
-10.19684629192793
20
25.088121191547337
42
0.54259185945375621
10
-13.545146782332742
20
25.274021800899771
42
-0.50721862922283123
10
-26.45485321766725
20
25.27402180089976
42
0.54259185945375654
10
-29.803153708072099
20
25.088121191547273
42
-0.022575548243748866
10
-31.739795753465117
20
22.041269322937346
42
0.076975409945101061
10
-34.17438324188214
20
17.098769935217593
42
0.50634545705307898
10
-32.26611843722857
20
14.500000000000002
10
-27
20
14.500000000000002
42
-0.34465684572479954
10
-25.058840300263903
20
12.981558947710926
42
0.17413890833037923
10
-24.308840300263892
20
11.856525672820057
42
-0.2375237244330354
10
-23.499999999999996
20
10.249933450218245
10
-23.5
20
7
42
0.41421356237309503
10
-21.5
20
5
10
-18.5
20
4.9999999999999991
42
0.41421356237309537
10
-16.5
20
7.0000000000000018
0
LWPOLYLINE
5
104
100
AcDbEntity
8
0
100
AcDbPolyline
90
22
70
1
43
0.0
10
-23.500000000000007
20
79.686007326095478
42
-0.22773507729236561
10
-24.250000000000004
20
78.12475782649588
42
0.16634647129735106
10
-24.944414008525918
20
77.031754163448127
42
-0.34657462036421161
10
-26.88882801705185
20
75.499999999999986
10
-32.266118437228542
20
75.499999999999986
42
0.50634545705307987
10
-34.174383241882111
20
72.901230064782382
42
0.076975409945101811
10
-31.739795753465096
20
67.958730677062633
42
-0.022092962613906402
10
-29.841635836496259
20
64.978775264827036
42
0.53914628533091469
10
-26.505639541423296
20
64.782171222454707
42
-0.50723477186880883
10
-13.59618564862286
20
64.669091084302522
42
0.5460711121430869
10
-10.235629066225979
20
64.844156052741198
42
-0.02306356167778395
10
-8.2602042465348831
20
67.958730677062647
42
0.07697540994510052
10
-5.8256167581178877
20
72.901230064782396
42
0.50634545705307854
10
-7.7338815627714563
20
75.499999999999986
10
-13
20
75.499999999999972
42
-0.34465684572479843
10
-14.941159699736104
20
77.018441052289063
42
0.17413890833037854
10
-15.691159699736101
20
78.143474327179959
42
-0.23752372443303446
10
-16.5
20
79.750066549781749
10
-16.5
20
83
42
0.41421356237309503
10
-18.5
20
85
10
-21.5
20
85
42
0.41421356237309503
10
-23.499999999999996
20
83
0
LWPOLYLINE
5
105
100
AcDbEntity
8
0
100
AcDbPolyline
90
80
70
1
43
0.0
10
-15.250000000000002
20
-0.43301270189221869
42
-0.26794919243112308
10
-15
20
-0.86602540378443837
10
-15
20
-4
10
-25
20
-4
10
-24.999999999999996
20
-0.86602540378443837
42
-0.26794919243113402
10
-24.749999999999996
20
-0.43301270189221763
42
1.3032253728411927
10
-25.433012701892213
20
0.25000000000000316
42
-0.26794919243111903
10
-25.866025403784437
20
0
10
-30
20
0
10
-30
20
3.0000000000000004
10
-28.5
20
3.0000000000000004
10
-28.5
20
6.5000000000000018
10
-30
20
6.5000000000000018
10
-30
20
9.5000000000000018
10
-34
20
9.5000000000000018
10
-34
20
6.5000000000000018
10
-35.5
20
6.5000000000000018
10
-35.5
20
3.0000000000000004
10
-34
20
3.0000000000000004
10
-34
20
0
10
-40
20
0
10
-40.000000000000036
20
11.709840518259252
42
-0.15403716094807116
10
-35.834183462760969
20
24.911110657570159
42
0.31556179771172438
10
-35.834183462760919
20
65.088889342429809
42
-0.15403716094807218
10
-40
20
78.290159481740744
10
-40
20
90
10
-34
20
90
10
-34
20
87
10
-35.5
20
87
10
-35.5
20
83.499999999999972
10
-34
20
83.499999999999972
10
-34
20
80.499999999999972
10
-30
20
80.499999999999972
10
-30
20
83.499999999999972
10
-28.5
20
83.499999999999972
10
-28.5
20
87
10
-30
20
87
10
-30
20
90
10
-25.866025403784441
20
90.000000000000014
42
-0.26794919243110737
10
-25.433012701892224
20
89.750000000000014
42
1.3032253728412568
10
-24.750000000000011
20
90.433012701892238
42
-0.26794919243115045
10
-25
20
90.866025403784448
10
-25
20
93.999999999999986
10
-15
20
93.999999999999986
10
-14.999999999999998
20
90.866025403784434
42
-0.26794919243111465
10
-15.250000000000007
20
90.43301270189221
42
1.3032253728411598
10
-14.566987298107769
20
89.75
42
-0.26794919243111381
10
-14.133974596215563
20
90
10
-10
20
90
10
-10
20
87
10
-11.5
20
87
10
-11.5
20
83.499999999999972
10
-10
20
83.499999999999972
10
-10
20
80.499999999999972
10
-6.0000000000000009
20
80.499999999999972
10
-6.0000000000000009
20
83.499999999999972
10
-4.5000000000000018
20
83.499999999999972
10
-4.5000000000000018
20
87
10
-6.0000000000000009
20
87
10
-6.0000000000000009
20
90
10
0
20
90
10
1.5543122344752192e-14
20
78.290159481740716
42
-0.15403716094807035
10
-4.1658165372390421
20
65.088889342429809
42
0.31556179771172344
10
-4.165816537239059
20
24.911110657570177
42
-0.15403716094807116
10
0
20
11.709840518259274
10
0
20
0
10
-6.0000000000000009
20
0
10
-6.0000000000000009
20
3.0000000000000004
10
-4.5000000000000018
20
3.0000000000000004
10
-4.5000000000000018
20
6.5000000000000018
10
-6.0000000000000009
20
6.5000000000000018
10
-6.0000000000000009
20
9.5000000000000018
10
-10
20
9.5000000000000018
10
-10
20
6.5000000000000018
10
-11.5
20
6.5000000000000018
10
-11.5
20
3.0000000000000004
10
-10
20
3.0000000000000004
10
-10
20
0
10
-14.133974596215563
20
1.457167719820518e-15
42
-0.26794919243112691
10
-14.566987298107781
20
0.25000000000000083
42
1.303225372841202
0
ENDSEC
0
SECTION
2
OBJECTS
0
DICTIONARY
5
C
100
AcDbDictionary
3
ACAD_GROUP
350
D
3
ACAD_MLINESTYLE
350
17
0
DICTIONARY
5
D
100
AcDbDictionary
0
DICTIONARY
5
1A
330
C
100
AcDbDictionary
0
DICTIONARY
5
17
100
AcDbDictionary
0
ENDSEC
0
EOF
